<svg width="24" height="24" viewBox="0 0 24 24" fill="none" xmlns="http://www.w3.org/2000/svg">
<path d="M12 24C18.6274 24 24 18.6274 24 12C24 5.37258 18.6274 0 12 0C5.37258 0 0 5.37258 0 12C0 18.6274 5.37258 24 12 24Z" fill="#3468D1"/>
<g filter="url(#filter0_d)">
<path d="M11.7938 4.545C12.153 4.35975 12.5918 4.788 12.4013 5.14125C12.2895 5.42925 11.8688 5.50575 11.6543 5.286C11.427 5.076 11.5013 4.659 11.7938 4.54425V4.545ZM7.92753 4.9545C8.14578 4.866 8.42253 5.0625 8.40003 5.29725C8.42253 5.55075 8.10753 5.73825 7.88478 5.6175C7.59003 5.505 7.62378 5.034 7.92753 4.9545V4.9545ZM15.846 5.62425C15.5048 5.58375 15.4508 5.05575 15.7785 4.94925C16.0335 4.82775 16.2675 5.0565 16.305 5.29425C16.251 5.49675 16.0785 5.68275 15.846 5.62425V5.62425ZM8.80728 6.573C9.17253 6.34575 9.69303 6.684 9.63678 7.10175C9.61803 7.5225 9.04953 7.767 8.72853 7.482C8.41803 7.2585 8.46528 6.7455 8.80728 6.573ZM14.3798 6.8145C14.5425 6.402 15.2025 6.3885 15.3878 6.7905C15.5715 7.10325 15.3458 7.491 15.0195 7.5975C14.5868 7.677 14.1765 7.2165 14.3798 6.8145ZM11.328 7.57425C11.3243 7.21875 11.6528 6.95475 11.9955 6.93C12.2235 6.975 12.471 7.07025 12.5685 7.296C12.7508 7.608 12.5888 8.03625 12.261 8.1795C12.111 8.262 11.9325 8.23125 11.769 8.2215C11.5193 8.1015 11.3085 7.86375 11.328 7.57425ZM5.57853 8.09175C5.91228 7.88925 6.36228 8.25675 6.23553 8.61375C6.16653 8.922 5.74503 9.04725 5.50428 8.85075C5.24703 8.66625 5.28753 8.223 5.57928 8.091L5.57853 8.09175ZM17.925 8.09025C18.2078 7.87425 18.675 8.1225 18.6405 8.4735C18.66 8.79375 18.2558 9.036 17.9753 8.871C17.6663 8.73375 17.634 8.26575 17.925 8.091V8.09025ZM12.945 8.7285C13.4115 8.5635 13.9665 8.76075 14.232 9.171C14.583 9.67125 14.397 10.4333 13.8518 10.7205C13.2878 11.0602 12.4635 10.773 12.2543 10.152C12.018 9.597 12.363 8.9025 12.9443 8.7285H12.945ZM10.2053 8.78325C10.7228 8.54325 11.4195 8.74425 11.6693 9.26475C11.9633 9.77175 11.736 10.4775 11.2103 10.7393C10.6838 11.034 9.94053 10.8105 9.68628 10.2668C9.40053 9.74025 9.65403 9.0255 10.2053 8.78325V8.78325ZM7.46253 9.705C7.50228 9.37725 7.81653 9.1635 8.13378 9.141C8.29923 9.15847 8.45386 9.23156 8.57239 9.34831C8.69091 9.46507 8.76632 9.61858 8.78628 9.78375C8.76378 10.1213 8.49903 10.4498 8.13603 10.4483C7.73628 10.482 7.38603 10.0905 7.46253 9.705V9.705ZM15.564 9.213C15.9743 8.97825 16.5435 9.3195 16.5255 9.783C16.5533 10.2742 15.9233 10.62 15.5153 10.332C15.0908 10.092 15.1238 9.417 15.564 9.213ZM9.09153 10.9432C9.57003 10.8135 10.119 11.0355 10.3538 11.469C10.611 11.9055 10.506 12.5115 10.1063 12.8325C9.59253 13.302 8.64678 13.113 8.37378 12.4725C8.05953 11.8852 8.44128 11.0978 9.09078 10.9425L9.09153 10.9432ZM14.2868 10.941C14.7525 10.8098 15.3 10.986 15.5505 11.4038C15.882 11.8815 15.7238 12.5947 15.231 12.9022C14.7135 13.26 13.914 13.0725 13.629 12.513C13.284 11.9348 13.6313 11.1173 14.2868 10.941V10.941ZM6.00678 11.4855C6.42078 11.3318 6.87978 11.781 6.71178 12.1853C6.60978 12.5528 6.08253 12.6892 5.81028 12.4177C5.49153 12.1627 5.60928 11.5965 6.00678 11.4855V11.4855ZM17.2335 12.072C17.2258 11.9069 17.2835 11.7454 17.3942 11.6227C17.5048 11.4999 17.6595 11.4258 17.8245 11.4165C18.108 11.4615 18.384 11.6865 18.3615 11.9903C18.3878 12.3915 17.8965 12.6638 17.5485 12.4755C17.3858 12.3938 17.3025 12.2295 17.2335 12.072ZM3.97053 11.685C4.21953 11.5778 4.52778 11.79 4.47078 12.0623C4.45728 12.3705 3.99453 12.4898 3.82503 12.2318C3.67503 12.0525 3.76503 11.7773 3.97053 11.6843V11.685ZM19.6823 11.6783C19.8578 11.556 20.1398 11.6437 20.2088 11.8455C20.3265 12.066 20.1105 12.3675 19.8585 12.3308C19.5045 12.3623 19.3905 11.832 19.6823 11.6783ZM10.4445 13.158C11.1 12.9908 11.805 13.5285 11.8095 14.193C11.8515 14.8643 11.157 15.459 10.4865 15.3045C9.96753 15.222 9.56028 14.73 9.57753 14.2147C9.57603 13.7212 9.95403 13.2623 10.4445 13.158V13.158ZM13.041 13.1572C13.7063 12.9742 14.4323 13.5217 14.4218 14.2012C14.457 14.8597 13.7843 15.435 13.1273 15.3038C12.5085 15.2258 12.0525 14.5575 12.225 13.9665C12.312 13.5735 12.6465 13.254 13.041 13.1565V13.1572ZM8.03403 13.566C8.49453 13.4887 8.92653 13.9935 8.73978 14.424C8.60328 14.883 7.92528 15.0068 7.62528 14.6325C7.27428 14.2725 7.53678 13.6155 8.03403 13.566V13.566ZM15.6495 13.5863C16.0605 13.4168 16.5645 13.7663 16.533 14.205C16.5495 14.6873 15.927 15.0202 15.5258 14.7382C15.0705 14.4855 15.1538 13.7408 15.6495 13.5863V13.5863ZM17.778 15.6863C17.6175 15.3915 17.9093 15.0007 18.243 15.0555C18.408 15.0525 18.5243 15.1808 18.63 15.2888C18.6518 15.4635 18.6885 15.672 18.5408 15.8063C18.3405 16.056 17.8868 15.9848 17.778 15.6863V15.6863ZM5.57703 15.1373C5.88828 14.934 6.33603 15.2377 6.26553 15.5947C6.22803 15.912 5.82303 16.0927 5.55678 15.9127C5.27028 15.75 5.28078 15.2858 5.57703 15.1373V15.1373ZM11.7218 15.7995C12.129 15.6233 12.648 15.972 12.609 16.413C12.639 16.9005 11.9978 17.238 11.5995 16.9455C11.157 16.6943 11.2313 15.9548 11.7218 15.7995V15.7995ZM8.87628 16.4528C9.22278 16.2735 9.68778 16.5833 9.65628 16.9658C9.66678 17.2793 9.35628 17.5463 9.04128 17.4998C8.78103 17.4945 8.61153 17.2643 8.52753 17.046C8.53203 16.8083 8.63178 16.5435 8.87628 16.4535V16.4528ZM14.6408 16.4588C14.9978 16.2413 15.5048 16.5533 15.471 16.9613C15.48 17.3888 14.907 17.6618 14.5748 17.3813C14.2538 17.1615 14.2928 16.6335 14.6408 16.4588ZM15.6435 18.8963C15.4845 18.6608 15.6713 18.3765 15.9285 18.3225C16.1363 18.3638 16.356 18.5175 16.3118 18.753C16.2818 19.0733 15.8063 19.1708 15.6435 18.897V18.8963ZM7.68528 18.6915C7.74828 18.504 7.90128 18.3188 8.12553 18.3675C8.45178 18.39 8.54853 18.8745 8.26278 19.0238C8.00628 19.194 7.70778 18.9608 7.68528 18.6915ZM11.5253 18.9068C11.5875 18.6293 11.9513 18.495 12.1913 18.642C12.3503 18.7095 12.3968 18.8835 12.4373 19.032C12.4159 19.1091 12.3959 19.1866 12.3773 19.2645C12.279 19.3785 12.1523 19.4933 11.9888 19.4895C11.685 19.5248 11.4105 19.1865 11.5245 18.9068H11.5253Z" fill="#3468D1"/>
</g>
<path d="M11.7938 4.545C12.153 4.35975 12.5918 4.788 12.4013 5.14125C12.2895 5.42925 11.8688 5.50575 11.6543 5.286C11.427 5.076 11.5013 4.659 11.7938 4.54425V4.545ZM7.92753 4.9545C8.14578 4.866 8.42253 5.0625 8.40003 5.29725C8.42253 5.55075 8.10753 5.73825 7.88478 5.6175C7.59003 5.505 7.62378 5.034 7.92753 4.9545V4.9545ZM15.846 5.62425C15.5048 5.58375 15.4508 5.05575 15.7785 4.94925C16.0335 4.82775 16.2675 5.0565 16.305 5.29425C16.251 5.49675 16.0785 5.68275 15.846 5.62425V5.62425ZM8.80728 6.573C9.17253 6.34575 9.69303 6.684 9.63678 7.10175C9.61803 7.5225 9.04953 7.767 8.72853 7.482C8.41803 7.2585 8.46528 6.7455 8.80728 6.573ZM14.3798 6.8145C14.5425 6.402 15.2025 6.3885 15.3878 6.7905C15.5715 7.10325 15.3458 7.491 15.0195 7.5975C14.5868 7.677 14.1765 7.2165 14.3798 6.8145ZM11.328 7.57425C11.3243 7.21875 11.6528 6.95475 11.9955 6.93C12.2235 6.975 12.471 7.07025 12.5685 7.296C12.7508 7.608 12.5888 8.03625 12.261 8.1795C12.111 8.262 11.9325 8.23125 11.769 8.2215C11.5193 8.1015 11.3085 7.86375 11.328 7.57425ZM5.57853 8.09175C5.91228 7.88925 6.36228 8.25675 6.23553 8.61375C6.16653 8.922 5.74503 9.04725 5.50428 8.85075C5.24703 8.66625 5.28753 8.223 5.57928 8.091L5.57853 8.09175ZM17.925 8.09025C18.2078 7.87425 18.675 8.1225 18.6405 8.4735C18.66 8.79375 18.2558 9.036 17.9753 8.871C17.6663 8.73375 17.634 8.26575 17.925 8.091V8.09025ZM12.945 8.7285C13.4115 8.5635 13.9665 8.76075 14.232 9.171C14.583 9.67125 14.397 10.4333 13.8518 10.7205C13.2878 11.0602 12.4635 10.773 12.2543 10.152C12.018 9.597 12.363 8.9025 12.9443 8.7285H12.945ZM10.2053 8.78325C10.7228 8.54325 11.4195 8.74425 11.6693 9.26475C11.9633 9.77175 11.736 10.4775 11.2103 10.7393C10.6838 11.034 9.94053 10.8105 9.68628 10.2668C9.40053 9.74025 9.65403 9.0255 10.2053 8.78325V8.78325ZM7.46253 9.705C7.50228 9.37725 7.81653 9.1635 8.13378 9.141C8.29923 9.15847 8.45386 9.23156 8.57239 9.34831C8.69091 9.46507 8.76632 9.61858 8.78628 9.78375C8.76378 10.1213 8.49903 10.4498 8.13603 10.4483C7.73628 10.482 7.38603 10.0905 7.46253 9.705V9.705ZM15.564 9.213C15.9743 8.97825 16.5435 9.3195 16.5255 9.783C16.5533 10.2742 15.9233 10.62 15.5153 10.332C15.0908 10.092 15.1238 9.417 15.564 9.213ZM9.09153 10.9432C9.57003 10.8135 10.119 11.0355 10.3538 11.469C10.611 11.9055 10.506 12.5115 10.1063 12.8325C9.59253 13.302 8.64678 13.113 8.37378 12.4725C8.05953 11.8852 8.44128 11.0978 9.09078 10.9425L9.09153 10.9432ZM14.2868 10.941C14.7525 10.8098 15.3 10.986 15.5505 11.4038C15.882 11.8815 15.7238 12.5947 15.231 12.9022C14.7135 13.26 13.914 13.0725 13.629 12.513C13.284 11.9348 13.6313 11.1173 14.2868 10.941V10.941ZM6.00678 11.4855C6.42078 11.3318 6.87978 11.781 6.71178 12.1853C6.60978 12.5528 6.08253 12.6892 5.81028 12.4177C5.49153 12.1627 5.60928 11.5965 6.00678 11.4855V11.4855ZM17.2335 12.072C17.2258 11.9069 17.2835 11.7454 17.3942 11.6227C17.5048 11.4999 17.6595 11.4258 17.8245 11.4165C18.108 11.4615 18.384 11.6865 18.3615 11.9903C18.3878 12.3915 17.8965 12.6638 17.5485 12.4755C17.3858 12.3938 17.3025 12.2295 17.2335 12.072ZM3.97053 11.685C4.21953 11.5778 4.52778 11.79 4.47078 12.0623C4.45728 12.3705 3.99453 12.4898 3.82503 12.2318C3.67503 12.0525 3.76503 11.7773 3.97053 11.6843V11.685ZM19.6823 11.6783C19.8578 11.556 20.1398 11.6437 20.2088 11.8455C20.3265 12.066 20.1105 12.3675 19.8585 12.3308C19.5045 12.3623 19.3905 11.832 19.6823 11.6783ZM10.4445 13.158C11.1 12.9908 11.805 13.5285 11.8095 14.193C11.8515 14.8643 11.157 15.459 10.4865 15.3045C9.96753 15.222 9.56028 14.73 9.57753 14.2147C9.57603 13.7212 9.95403 13.2623 10.4445 13.158V13.158ZM13.041 13.1572C13.7063 12.9742 14.4323 13.5217 14.4218 14.2012C14.457 14.8597 13.7843 15.435 13.1273 15.3038C12.5085 15.2258 12.0525 14.5575 12.225 13.9665C12.312 13.5735 12.6465 13.254 13.041 13.1565V13.1572ZM8.03403 13.566C8.49453 13.4887 8.92653 13.9935 8.73978 14.424C8.60328 14.883 7.92528 15.0068 7.62528 14.6325C7.27428 14.2725 7.53678 13.6155 8.03403 13.566V13.566ZM15.6495 13.5863C16.0605 13.4168 16.5645 13.7663 16.533 14.205C16.5495 14.6873 15.927 15.0202 15.5258 14.7382C15.0705 14.4855 15.1538 13.7408 15.6495 13.5863V13.5863ZM17.778 15.6863C17.6175 15.3915 17.9093 15.0007 18.243 15.0555C18.408 15.0525 18.5243 15.1808 18.63 15.2888C18.6518 15.4635 18.6885 15.672 18.5408 15.8063C18.3405 16.056 17.8868 15.9848 17.778 15.6863V15.6863ZM5.57703 15.1373C5.88828 14.934 6.33603 15.2377 6.26553 15.5947C6.22803 15.912 5.82303 16.0927 5.55678 15.9127C5.27028 15.75 5.28078 15.2858 5.57703 15.1373V15.1373ZM11.7218 15.7995C12.129 15.6233 12.648 15.972 12.609 16.413C12.639 16.9005 11.9978 17.238 11.5995 16.9455C11.157 16.6943 11.2313 15.9548 11.7218 15.7995V15.7995ZM8.87628 16.4528C9.22278 16.2735 9.68778 16.5833 9.65628 16.9658C9.66678 17.2793 9.35628 17.5463 9.04128 17.4998C8.78103 17.4945 8.61153 17.2643 8.52753 17.046C8.53203 16.8083 8.63178 16.5435 8.87628 16.4535V16.4528ZM14.6408 16.4588C14.9978 16.2413 15.5048 16.5533 15.471 16.9613C15.48 17.3888 14.907 17.6618 14.5748 17.3813C14.2538 17.1615 14.2928 16.6335 14.6408 16.4588ZM15.6435 18.8963C15.4845 18.6608 15.6713 18.3765 15.9285 18.3225C16.1363 18.3638 16.356 18.5175 16.3118 18.753C16.2818 19.0733 15.8063 19.1708 15.6435 18.897V18.8963ZM7.68528 18.6915C7.74828 18.504 7.90128 18.3188 8.12553 18.3675C8.45178 18.39 8.54853 18.8745 8.26278 19.0238C8.00628 19.194 7.70778 18.9608 7.68528 18.6915ZM11.5253 18.9068C11.5875 18.6293 11.9513 18.495 12.1913 18.642C12.3503 18.7095 12.3968 18.8835 12.4373 19.032C12.4159 19.1091 12.3959 19.1866 12.3773 19.2645C12.279 19.3785 12.1523 19.4933 11.9888 19.4895C11.685 19.5248 11.4105 19.1865 11.5245 18.9068H11.5253Z" fill="white"/>
<defs>
<filter id="filter0_d" x="2.75037" y="4.00031" width="18.4914" height="16.9917" filterUnits="userSpaceOnUse" color-interpolation-filters="sRGB">
<feFlood flood-opacity="0" result="BackgroundImageFix"/>
<feColorMatrix in="SourceAlpha" type="matrix" values="0 0 0 0 0 0 0 0 0 0 0 0 0 0 0 0 0 0 127 0"/>
<feOffset dy="0.5"/>
<feGaussianBlur stdDeviation="0.5"/>
<feColorMatrix type="matrix" values="0 0 0 0 0 0 0 0 0 0 0 0 0 0 0 0 0 0 0.204257 0"/>
<feBlend mode="normal" in2="BackgroundImageFix" result="effect1_dropShadow"/>
<feBlend mode="normal" in="SourceGraphic" in2="effect1_dropShadow" result="shape"/>
</filter>
</defs>
</svg>
