<svg xmlns="http://www.w3.org/2000/svg" width="101" height="101" fill="none" viewBox="0 0 101 101">
  <path fill="#988430" d="M50.401 100.523c27.615 0 50-22.385 50-50 0-27.614-22.385-50-50-50-27.614 0-50 22.386-50 50 0 27.615 22.386 50 50 50z"/>
  <path fill="#7A6A2A" d="M50.401 98.924c26.73 0 48.4-21.67 48.4-48.4 0-26.731-21.67-48.4-48.4-48.4-26.73 0-48.4 21.669-48.4 48.4 0 26.73 21.67 48.4 48.4 48.4z"/>
  <path fill="#BA9F33" d="M50.401 97.9c26.165 0 47.376-21.212 47.376-47.377 0-26.165-21.21-47.376-47.376-47.376-26.165 0-47.376 21.211-47.376 47.377 0 26.165 21.211 47.376 47.376 47.376z"/>
  <path fill="#CFB66C" fill-rule="evenodd" d="M22.263 45.185c-.283-.256-.582-.518-.859-.779s-.56-.517-.843-.779l-.842-.8c-.139-.138-.283-.255-.422-.394-.138-.123-.298-.256-.437-.379-1.115-1.061-2.24-2.117-3.344-3.178a607.48 607.48 0 013.397 3.14l.395.395c.139.14.283.256.421.395l.843.779c.283.256.56.517.843.8.282.282.565.544.848.8zm-14.822-.16s4.06.421 6.043.704c1.835.261 7.579 1.141 7.579 1.141L7.44 45.025zm0 0c1.142.096 2.283.218 3.424.341.582.059 1.142.123 1.702.176l.858.096c.283.043.56.08.843.123l3.397.544 1.702.282c.56.096 1.114.203 1.701.3a46.433 46.433 0 01-1.701-.22l-1.696-.245-3.398-.501c-.282-.043-.56-.096-.842-.139l-.859-.101c-.56-.059-1.141-.139-1.701-.203a80.297 80.297 0 01-3.43-.453zm13.216 2.901s-4.336 1.099-5.802 1.52c-1.44.395-5.803 1.723-5.803 1.723l11.605-3.243z" clip-rule="evenodd"/>
  <path fill="#CFB66C" fill-rule="evenodd" d="M20.657 47.926c-.96.283-1.92.56-2.896.816l-2.896.779c-.966.283-1.92.56-2.88.843l-1.44.394c-.48.139-.965.256-1.456.395.475-.16.965-.325 1.44-.464l1.44-.459c.965-.298 1.92-.581 2.88-.88.981-.245 1.941-.501 2.922-.736.928-.234 1.91-.464 2.886-.688zM9.665 53.841c.475-.176 5.979-2.741 7.259-3.344.64-.299 2.5-.96 2.5-.96l-9.76 4.304z" clip-rule="evenodd"/>
  <path fill="#CFB66C" fill-rule="evenodd" d="M9.665 53.841c.421-.16.816-.357 1.221-.544l1.2-.56 2.406-1.157c.8-.379 1.578-.8 2.4-1.158.421-.176.842-.325 1.264-.458l.64-.203c.218-.059.421-.123.64-.176-.8.379-1.643.704-2.443 1.077-.8.395-1.616.72-2.443 1.078l-2.442 1.077c-.827.33-1.627.688-2.443 1.024zm.533 2.24s4.982-2.923 6.699-3.861c.896-.502 3.803-1.942 3.803-1.942l-10.502 5.803z" clip-rule="evenodd"/>
  <path fill="#CFB66C" fill-rule="evenodd" d="M10.198 56.086c.843-.517 1.696-1.045 2.555-1.578l1.28-.78c.437-.255.859-.5 1.301-.762.438-.261.859-.517 1.302-.763.213-.133.432-.245.66-.34l.678-.342c.896-.438 1.798-.88 2.742-1.264-.86.544-1.74 1.003-2.624 1.483-.438.245-.88.463-1.318.703-.437.24-.858.502-1.301.736a35.23 35.23 0 01-1.301.736l-1.318.72-2.656 1.451zm10.459-5.163s-3.099 2.38-4.101 3.142c-1.003.763-3.958 2.896-3.958 2.896l8.059-6.038z" clip-rule="evenodd"/>
  <path fill="#E2CC85" fill-rule="evenodd" d="M38.444 70.107l-1.59-3.002.923-3.755 6.581-2.539-2.8-5.744 1.382-5.802 2.597-5.195 8.027-1.264 5.898-5.621 12.736.96 2.497 13.62-4.811 17.142-2.747 8.875-11.114.421-5.163-3.573-6.043-2.528-6.373-1.995z" clip-rule="evenodd"/>
  <path fill="#F1D789" fill-rule="evenodd" d="M57.943 70.006s-1.536.704-4.16.544c-.757-1.019-6.075-1.499-6.075-1.499s-.66-.202-1.834.283c-1.179.48-2.299.421-3.344.677-1.046.256-2.08-1.098-2.88-1.381-.8-.299-1.861-1.019-1.861-1.019l-2.24-.218-4.497-1.904-7.146-7.12-1.941 3.04-.598 3.76 2.16 4.458 5.819 5.302 11.344 2.88 6.725-1.979 8.422-3.563 2.106-2.261z" clip-rule="evenodd"/>
  <path fill="#F4ECB4" fill-rule="evenodd" d="M17.639 44.849l1.44-4.363 1.717-2.816 5.525-.464-1.658 4.843-4.619 8.218 1.92 7.34-3.403 1.695-1.04-1.6-.842-3.675-.059-4.122 1.019-5.056z" clip-rule="evenodd"/>
  <path fill="#F3E19D" fill-rule="evenodd" d="M23.837 69.707l-1.062-1.482s-.282-.704-.122-1.317c.16-.624.138-.662.058-.897-.08-.234-.762-1.045-.72-1.738.043-.704-.058-.939.459-1.499.544-.544.378-1.483.378-1.483l.704.438.16-.245s.262.202.262.517c.058-.438-.176-2.459.357-2.923.534-.464 1.483 2.16 1.483 2.16l-.582-3.803-1.498-3.898-2.662-3.563-.16-3.925v-.341s-1.22 1.877-1.562 3.36c-.24 1.018.341 2.256.219 3.722-.096 1.456-.22 1.344.138 1.92.357.576 1.221 1.765.88 2.624-.299.736-1.317.219-1.317.219s-.203.597-.48.816c-.096-.358-.203-.581-.395-.8-.016.139-.058.325-.058.325s-.177-.56-.358-1.264c-.24-.939-.501-2.176-.736-2.837-.096.379-.341 1.536-.341 1.536l.138 1.781.662 2.443.64 1.6.624 1.957.538 1.317.438 1.003.378 2.256 1.835 1.941.981.438.72-.358z" clip-rule="evenodd"/>
  <path fill="#F2E8B0" fill-rule="evenodd" d="M18.604 41.286s-1.318 2.24-1.696 4.496c-.379 2.256-.72 4.645-.48 7.717.24 3.099.704 5.003 1.077 6.358.64 2.256 2.299 5.397 2.299 5.397l.058-.123a8.41 8.41 0 01-.661-1.658c-.219-.859-.299-1.878-.501-2.336-.176-.459-.48-.859-.624-1.424-.139-.544-.16-1.398-.582-2.038-.176-.261-.394-.938-.458-1.616-.08-1.018.042-2.16-.059-3.098-.176-1.563-.299-2.624-.139-3.44.16-.816 1.003-3.136 1.52-4.982.342-1.184.139-2.176.763-3.205.624-1.019 1.003-1.92 1.141-2.539.15-.565-1.658 2.491-1.658 2.491z" clip-rule="evenodd"/>
  <path fill="#F5EEC0" fill-rule="evenodd" d="M24.86 40.39s-.678.203-1.003.56c-.325.341-.464.624-.896 1.2s-.459 1.046-.816 1.766c-.357.704-1.141 1.765-1.237 2.144-.096.378-.256 2.16-.459 3.002-.176.843.203 1.878.203 1.878l.458-.096s0 .597.459 1.002c.459.395.544-1.344.544-1.344l1.723-5.819 2.597-1.765.283-1.424-1.856-1.104z" clip-rule="evenodd"/>
  <path fill="#E6DB9D" fill-rule="evenodd" d="M26.119 43.025s-1.221.08-1.819.517c-.24.176-.341.325-.597.544-.48.395-.965.763-1.2 1.28-.262.517-.544 1.301-.736 2.784-.08.624-.08 1.2-.139 1.702-.08.677-.203 1.22-.139 1.6.08.778.88 1.184.96 2.064l1.66-.843 1.562-6.16 3.317-2.08-1.877-2.102-.992.694z" clip-rule="evenodd"/>
  <path fill="#E5CB7A" fill-rule="evenodd" d="M17.372 84.486c.005-.059.016-.123.021-.181.24-2.08.283-3.66.46-4.646.26-1.397.436-1.92.394-2.442-.059-.843-.123-1.456-.043-2.102.123-.858.96-1.877.939-2.581-.016-.56-.299-.923-.544-1.264l-.438-.624s1.66-1.141 1.643-5.739c.032.01.064.022.096.043l.816 2.32.56.677 2.144 3.995 2.757 2.677 4.08 2.742 2.555 2.784.256 7.418-3.344 4.336-.55.992a47.487 47.487 0 01-11.802-8.405z" clip-rule="evenodd"/>
  <path fill="#D8C173" fill-rule="evenodd" d="M27.575 91.585s.059-.923.816-1.52c.123.203.203.395.176.544.139-.24 1.099-1.797 3.275-2.203 2.176-.395 2.704-1.984 2.704-1.984l4.618-4.197 5.286-4.864 6.421-2.256 3.003-.736s.058.219-.059.704c.56-.043 1.797-.325 3.083-.779.517-.203 1.002-.282 1.264-.016.379.357.437 1.195.459 1.696.623-.139 1.343-.736 1.92-.677.922.096 1.738 1.184 2.677 1.184 1.237 0 1.797-.763 2.661-1.36.517-.358 1.264-.8 1.685-1.099 1.003-.736 11.617-3.979 11.617-3.979l3.722.246.597 3.995-.32 10.447c-.037.038-.08.075-.117.118l-16.922 8.837-23.457 3.595a47.101 47.101 0 01-14.997-5.157l-.112-.54z" clip-rule="evenodd"/>
  <path fill="#F1D789" fill-rule="evenodd" d="M18.791 85.82c.336-.7.635-1.28.688-1.488.043.42.117 1.344.272 2.325-.325-.278-.645-.56-.96-.837z" clip-rule="evenodd"/>
  <path fill="#E0CD81" fill-rule="evenodd" d="M35.927 95.649l3.035-.843.256.08s.138.08.138.358c.38-.22.704-.177.94-.326.122.256.24 1.115.778 1.221.56.123 1.157-.245 1.765-.703.598-.475 1.28-1.078 1.797-1.318.187.347.358.71.502 1.078.677-.544 1.861-2.742 3.541-2.704a6.383 6.383 0 012.336-2.822c1.563-1.061 2.539-1.141 3.76-1.045a6.49 6.49 0 011.766-1.579c.202.08.762.421 1.456.096.703-.325 1.498-1.578 2.538-1.739.56-.08 1.136.043 1.616.342 0 0 3.04-3.019 5.136-4.022-.08-.245-.245-1.157 2.219-3.178.138.123.043.464.138.48.043 0 .64-.256 1.398-.843.939-.704 2.064-1.44 2.741-1.643 1.28-.378 2.64.395 2.64.395.117-.08.245-.138.379-.176.325-.058.56-.096.736-.16-.016.421.219 1.142 0 1.766.25.143.523.255.8.34-.139.3-.438 1.062-.939 1.425.421.203.475.437 1.078.64-.246.341-.64.922-.817 1.28-.175.378-.816 1.957-1.098 2.554-.299.598-.704 1.702-.896 1.92-.192.22-.896 1.158-1.44 1.617.48-.177 2.442-.78 3.275-1.003-.251.362-1.505 2.23-2.715 4.021a47.472 47.472 0 01-38.864 4.501l.005-.01z" clip-rule="evenodd"/>
  <path fill="#DFC57C" fill-rule="evenodd" d="M26.32 42.806s-.703 0-.842.096.704.299.96.395c.256.096.816.544.966.896.138.341 5.055 2.32 5.055 2.32l3.478-.176 1.2-1.659-2.283-2 1.6-4.715-2.117.342-5.099 3.04-2.555.981-.362.48z" clip-rule="evenodd"/>
  <path fill="#E5CC7C" fill-rule="evenodd" d="M33.958 44.369a.53.53 0 00.48.256c.72 0 1.382.176 1.659.544.464.581 1.739 2.442 1.739 2.442l3.056 1.099.197-3.6-3.344-2.32-3.803 1.397v.176l.016.006z" clip-rule="evenodd"/>
  <path fill="#D2C281" fill-rule="evenodd" d="M33.361 45.702s.56.043 1.265-.218c.704-.262 1.86-.816 2.362-.598.704.299.56 1.238 1.318 2.08.458.518 1.3.502 1.78 1.062.476.56 2.118.298 2.118.298l.624 3.36-2.501 3.206-.816 3.978h-3.382l-3.087-1.226-1.52-3.68.762-3.723 1.078-4.539z" clip-rule="evenodd"/>
  <path fill="#E2C270" fill-rule="evenodd" d="M39.9 45.867c.085.027.17.038.256.043-.096.08-.299.256-.219.72.08.464.341 1.045.123 1.398.176.191.304.416.378.66.139.395.176.764 1.078.817-.128.08-.251.176-.358.282 0 0 .624.544.939 1.046.325-.016 1.179-.283 1.179-.283l.176.123.378-.16s-.357-.139-.096-1.003c.24-.762.464-.72.48-.779.016-.058.176-.858.176-1.184.123-.42.219-1.695.219-1.695l-.256-2.822-1.456-.88-1.184-1.141-1.115 2.101-.736.736-.058 1.819.096.203z" clip-rule="evenodd"/>
  <path fill="#CCB360" fill-rule="evenodd" d="M43.404 43.505s.256.736.358 1.301c.032-.112.053-.224.058-.341 0 0 .203 1.114.24 1.578.08-.016.16-.042.176.043.016.08.203.981.16 1.483a4.045 4.045 0 011.36-1.36c.326-.203.704-.422 1.099-.438.624-.016 1.077.395 1.819.395 1.797 0 3.424-1.317 4.618-1.723.88-.298 1.643-.517 2.176-1.002.262-.219.72-.704 1.142-1.424.56-.96 1.141-1.798 1.722-1.899a3.65 3.65 0 01-.8.059s.176-.176.48-.422c.304-.245.662-.544 1.179-.544.923 0 1.381.14 1.904.14.517-.017.816-.14.816-.14s.544.38 1.765.38c1.222.015 2.038.122 2.678.175.64.053 2.784-.176 3.397-.16.4.016.795.112 1.157.283l-1.984-5.76-7.12-6.224-4.24 3.002-6.522 6.523-6.31 2.336-1.317 1.483v2.256h-.01z" clip-rule="evenodd"/>
  <path fill="#D5B457" fill-rule="evenodd" d="M57.559 40.203s.176-.176.474-.421c.299-.245.662-.544 1.184-.544.923 0 1.382.139 1.904.139.518-.016.816-.139.816-.139s.544.379 1.766.379c1.221.016 2.037.122 2.677.176.64.053 2.784-.176 3.397-.16.4.016.795.112 1.158.282l-.896-2.597-1.046-1.984-2.976-3.259-3.6-2.117a49.16 49.16 0 00-1.237-.341l-3.237 1.957-2.939 7.6-.059 1.6 1.899.896c.475-.8 1.003-1.44 1.499-1.52-.443.053-.784.053-.784.053z" clip-rule="evenodd"/>
  <path fill="#D2B257" fill-rule="evenodd" d="M57.522 40.742c-.283.016-.518-.043-.582-.24-.245-.677-.437-.779-.64-.779-.202 0-.474.438-.64.475-.165.037-.357-.501-.357-.501l-.176-.08s-1.045.677-1.781 1.482c-.736.8-1.942 2.16-2.486 2.4-.544.24-2.405.326-3.04.464-.634.139-1.344.598-1.44.704-.096.107.283.219.342.326.058.096-.624.058-.683.16-.043.08.16.544.261.778.176-.085.363-.133.56-.138.624-.016 1.078.394 1.819.394 1.797 0 3.424-1.317 4.619-1.722.88-.299 1.642-.518 2.176-1.003.256-.219.72-.704 1.141-1.424.31-.496.608-.955.907-1.296z" clip-rule="evenodd"/>
  <path fill="#D2B159" fill-rule="evenodd" d="M31.762 80.785s-.16-.597-1.643-2.144c-.421-.438-.677-.8-.96-1.062-.704-.66-1.115-.842-1.616-1.22-1.099-.817-2.299-.817-3.221-1.82-.923-1.002-1.995-2.922-2.742-4.88-.736-1.957-.938-2.58-.938-2.634 0-.053.202-.438.458-.379.262.059.262.56.326.678.128.197.277.384.437.56.379.437.923.96 1.2 1.738a8.107 8.107 0 00-.283-1.397s1.424.896 2.64 1.835c1.222.938 1.723 1.263 2.08 1.86.358.598 1.195 2.177 1.6 2.64.4.46 5.92 2.204 5.92 2.204l2.624 1.957 1.302 2.858-1.02 1.6-1.956.422-3.18-1.424-1.028-1.392z" clip-rule="evenodd"/>
  <path fill="#C2A44D" fill-rule="evenodd" d="M24.694 70.945s.662 1.061 2.283 2.064c1.456.88 3.76 1.685 5.819 2.16 1.178.282 2.362.501 3.424.517 2.853.043 4.821-.779 7.258-1.045 1.318-.139 2.939-.246 4.619-.64 2.16-.517 3.44-1.099 5.179-1.92 1.264-.582 2.421-1.019 3.354-1.579 1.318-.778 2.283-1.642 3.398-1.898-.139.378-.283 1.06-1.382 1.765.582-.016 1.382-.059 1.382-.059s-.779.459-2.144 1.499c-.843.64-1.958 1.722-3.099 2.442-.736.465-1.536.8-2.064 1.078-1.28.704-1.797 1.061-2.635 1.92.299-.016.326 0 .326 0s-1.062.139-1.819.544c-.16 0-.437-.059-.923.08-.378.123-.88.394-1.397.544-.736.218-.976.123-.976.123l.123.245s-.96-.016-1.28.016c.058.016.042.043.042.043a.414.414 0 00-.16.058 1.61 1.61 0 01-.501.219c-.096.016-.176.016-.299.043.043.096.358.64.502.96-.123.08-1.942 1.456-1.942 1.456.059.09.102.18.139.282.059.176.08.438.139.56.138.246.218.283.218.283s-.218.043-.597.139c-.325.08-.72.218-1.28.298-.17.022-.347.038-.517.043.08.176.437.858-.219 1.642-.656.785-.859.897-1.061 1.403a2.227 2.227 0 00-.326-.203c-.218-.096-.517-.24-.624-.437a4.878 4.878 0 01-.245.763c-.203.544-.501 1.077-.56 1.483-.219-.246-.624-.72-1.184-.624-.56.096-1.003.858-1.099 1.077 0-.139-.096-.246-.122-.08-.016.176-.326 2.037-2.038 3.541-.016-.379-.016-1.221-.058-1.499-.16.16-.358.395-1.52.896-1.142.502-.96 1.003-.96 1.003s-.096-.8.517-1.643c.624-.842 1.003-1.237 1.003-1.3a.356.356 0 00-.08-.177c-.08-.08-.24-.176-.24-.245.096-.043 1.061-.501 1.002-1.456-.058-.859-.421-1.301-.677-1.616-.043-.043.379-.341.325-.438-.042-.058-.56-.437-.624-.64a2.04 2.04 0 01.08-.357c.059-.176.096-.299.08-.421-.042-.203-.261-.763-.325-.816.059.016.459 0 .459 0s-.326-.517-.379-.763c-.059-.245-.176-.88-.245-1.003.138.016.48.043.48 0 .016-.122-.299-.325-.16-.48.096.016.282.096.458.326-.096-.261-.256-.763-.597-.965.16-.06.704-.203 1.184.08.475.282.64.677.64.677s.283.219.72.544c.501.395 1.141.96 2.16 1.36.219.123.779.123 1.184.043.176-.043.347-.112.501-.203.059-.032.118-.059.176-.08a3.653 3.653 0 00-.298-.501c.138 0 .298.016.298.016s.096-.22-.341-.64c.096-.096.219-.16.219-.326-.139-.016-.379-.219-.438-.299.08-.058.203-.245.342-.298-.123-.096-.422-.501-.56-.544.133-.048.256-.107.378-.176 0 0-.677-.176-.896-.325-.218-.16-.544-.438-.736-.518-.202-.08-.56-.122-.704-.282.139.042.358 0 .518 0 .122 0 .176.016.218.016-.016-.06-.016-.177.299-.22.15-.02.299-.069.437-.138 0 0-.298-.016-.64-.341-.341-.326-.624-.582-.816-.624-.202-.043-.581.139-.816.123-.325-.043-.464-.203-.464-.203s-1.077.096-3.461-1.36c-2.064-1.264-2.96-2.379-2.96-2.379a3.321 3.321 0 01-.56-.261c-.779-.406-1.85-1.248-1.819-2.347l-.016-.005z" clip-rule="evenodd"/>
  <path fill="#CAA13E" fill-rule="evenodd" d="M54.46 22.385c.187.058.352.17.48.325.379.437.624 1.264-.245 2.144.341.123.48.16.778.123-.298.357-.976 1.114-1.018 1.781-.043.544.298.704.298.704s-.517.597-.544 1.6c.246-.277.512-.528.8-.763.598-.48 1.424-1.018 1.984-1.36-.005.144.011.283.059.422 0 0 1.045-.859 1.92-.475.395.176.219.736.219.736s.544-.203.922.176c.379.379.918 1.36 1.195 1.744.123.176.437.517.763 1.045.442.736.81 1.515 1.098 2.32.016-.42.123-1.077 1.318-.66 1.194.42 2.554 1.3 3.696 3.04 1.14 1.738 1.424 3.695 2 4.442.58.72 1.184 1.92 1.22 2.421.038.501-.175 2.117 1.02 6.496.34-1.36.858-4.379.858-4.379l.283-2.66.325-8.236-8.602-7.146-6.726-4.88-4.378.421.277.619z" clip-rule="evenodd"/>
  <path fill="#B59544" fill-rule="evenodd" d="M70.439 34.646s-.123-.8-2.144-2.16c-2.022-1.344-3.6-1.344-5.056-2.485-1.115-.896-2.283-2.96-3.04-3.643-.736-.672-.86-2.613-.86-2.613l2.486-2.08 3.696-5.339 3.126-3.44 1.498 2.08 2.08 2.443 1.157 4.901.422 7.179-3.365 5.157z" clip-rule="evenodd"/>
  <path fill="#C89D3A" fill-rule="evenodd" d="M72.94 43.243a9.27 9.27 0 00-.395-3.221c-.534-1.659-1.696-4.603-2.24-5.707-.219-1.221-.059-1.317.176-1.456.235-.138 1.115-.64 1.6-2.4.485-1.76 1.984-1.818 1.984-1.818l.922-.678 1.403 3.504 1.222 3.163.378 2.421.283 2.064-.661 4.363-3.275 2.96-1.398-3.195z" clip-rule="evenodd"/>
  <path fill="#CEB052" fill-rule="evenodd" d="M27.223 91.852v-.091a.63.63 0 00.176-.16c.058-.08.096-.176.138-.203.08-.042.464-.16.662-.122.202.037.736.256 1.018.245.582-.016 1.264-.464 2.336-.256 1.616.299 2 1.397 2.939 2.021.64.438 1.301.246 1.397.246h.219c.043 0 .341-.342.501-.326.326.016.358.283.56.299.48.059 1.403-.245 1.862-.123a.88.88 0 01.581.582c.096.298.016.677-.219.896-.501.458-.976.896-1.077 1.28.123.096.24.192.357.298-4-1.013-7.85-2.554-11.45-4.586z" clip-rule="evenodd"/>
  <path fill="#CCA847" fill-rule="evenodd" d="M70.306 75.686S71.57 74 72.007 73.168c.437-.858-1.381-11.738-1.381-11.738l3.658-11.984-.096-3.899s.176-3.6.598-5.162c.501.896 2.064 1.983 2.405 2.554.16-1.099.704-3.424.624-5.898.299.458 1.019 5.098 1.019 5.098l.72 3.12.938 3.318 1.046 3.504.624 2.42.357.582.299 1.019.282 1.099.816 2.58.48 2.118.379 3.846c.085.293.144.591.176.895.016.422-.059.662-.059.736 0 .075.139.923.08 1.563-.08.64-.08 1.142-.581 1.6-.501.459-.816 3.206-.816 3.206l-.896-.598s.176-.816-.245-1.563c-.422-.746-1.238-.895-1.702-.778-.458.096-1.381.24-1.68.501-.282.256-.976 1.061-1.616 1.424-.8.48-2.101.518-2.8.678-.704.16-1.482.64-2.298 1.194-.651.432-1.328.79-2.032 1.083z" clip-rule="evenodd"/>
  <path fill="#C39D3C" fill-rule="evenodd" d="M70.306 93.366s.053.037.154.09A47.56 47.56 0 0085.607 82.23c-.048-1.637-.107-3.317-.17-3.936-.14-1.317-.043-2.661-.08-3.44-.038-.778-.475-3.941-.678-4.757-.219-.816-.64-1.221-.704-1.221-.059.015-.395 1.535-.395 1.92 0 .383-.08 1.3-.08 1.535-.058-.016-.08-.16-.08-.218-.08.203-.176.56-.218.597-.043.038.058-.341 0-.421-.059-.08-.16-.043-.139-.246.01-.117.027-.24.059-.357 0 0-.246.357-.422 1.264-.176.896-.176.923-.245 1.003-.059.096-.379.421-.395.544-.016.219.299.437.326.56.016.203-.283 1.141-.379 1.6-.096.459-.059 1.36-.16 1.819-.08.42-.16.66-.437.842.202.043.394.096.394.096s.283 1.195-.437 2.219c-.261.357-.325.517-.597.843-.544.597-.966 1.28-1.003 1.722a3.36 3.36 0 01-.059-.394s-.842.98-1.194 1.535c-.459.72-1.099.678-1.28.86-.182.18-.219.5-.16.762-.16.043-.459.096-.662.72-.096.325-.341.64-.72.859-.378.218-.842.282-1.077.34.203.06.283.06.379.124-.123.202-.678.517-1.302.922-.624.379-.922.939-1.077 1.302-.16.34-.395.56-.779.597.16.096.395.325.518.394-.176.043-.48.043-1.019.502-.576.47-.768.602-1.03.645z" clip-rule="evenodd"/>
  <path fill="#D2BA6B" fill-rule="evenodd" d="M59.047 97.115c.31-.218.645-.394.997-.528 1.264-.501 2.598-.597 3.126-.762.5-.16.895-.38 1.52-.502-.016.144-.032.278-.043.4a47.435 47.435 0 01-5.6 1.392z" clip-rule="evenodd"/>
  <path fill="#C0993A" fill-rule="evenodd" d="M82.321 63.926s-.261 1.397-.72 2.283c-.464.88-.96 2.101-.96 2.101.005-.277.037-.55.096-.816-.581.341-2 1.157-2.4 1.52-.379.341-1.019.939-1.184 1.221.379-1.114.779-2.117.843-2.581-.582.421-3.302 2.661-4.715 4.144l-4.41 3.568a16.78 16.78 0 01-1.569.736c-.762.325-1.658.597-2.32.859.176-.475.459-.896.859-1.302.421-.394 1.685-1.765 1.877-2.4.176-.661.219-1.061-.016-1.616-.218.059-.72.08-1.061.176-.341.096-.704.459-.704.459s.256-1.483.816-2.88c-.421.016-1.141.139-1.141.139s1.002-1.686 2.72-2.854a8.991 8.991 0 00-1.536.475c-1.003.421-2.102 1.045-2.923 1.381.459-.64 3.696-5.258 5.621-9.562 1.92-4.299 2.635-5.398 3.056-7.702.22-1.141.16-2.826.219-4.336.059-1.498.245-2.837.123-3.738.501.624 2.378 2.378 2.442 6.304.06 3.925-1.797 9.221-3.76 12.08.48.138 1.723.298 3.003-1.92 1.28-2.219 1.264-2.838 1.723-3.76.058.464.042.624.042.624s1.862-2.256 2.742-5.099c.176 1.221.704 2.299-.123 4.539-.736 2.021-1.696 2.517-1.696 2.517s.475-.08 1.179-.501c.122.298.096.64.298.762.203.123.475.326.518.518.218-.326.56-.736.661-1.046-.08.64-.139 3.44.16 4.864.624-.058 1.264-.096 1.701-1.221-.298 1.099-.298 1.765-.096 2.704.331-.24.63-.645.635-.64z" clip-rule="evenodd"/>
  <path fill="#A88F33" fill-rule="evenodd" d="M61.297 19.329s-.624.256-1.685.256c-.923 0-.662-.358-2.102-.358-2.218 0-9.957 1.28-11.317 1.264-.88-.015 2.976.38 2.976.38l9.861.138 1.984-.16.736-1.499-.453-.021z" clip-rule="evenodd"/>
  <path fill="#E3C571" fill-rule="evenodd" d="M35.724 38.609s-1.264.96-1.797 1.701c-.533.742-.816 1.222-1.424 1.819.144.005.283-.016.421-.059 0 0 0 .16-.096.203a.541.541 0 01.459.16c-.176.096-.661.581-.283 1.157.283.438.88.475.88.475s-.138.395.438.357c1.237-.058 2.624-.597 3.258-.464.64.16 1.003.219 1.456 1.003.48.779.896.896.896.896s.283-.72.219-1.797a5.205 5.205 0 00.379-1.82l-.422-3.098-1.834-2.32-2.38 1.318-.17.469z" clip-rule="evenodd"/>
  <path fill="#D8B65B" fill-rule="evenodd" d="M37.98 38.145s.177.421.923.459c-.08.176-.08.202-.059.341l.043.341a.795.795 0 00.219-.16c.042.176-.043.459 0 .662.026.122.064.245.122.357.011-.027.027-.053.043-.08.016-.043.16.437.56.8 0-.053.016-.112.043-.16a.544.544 0 00.096.283.222.222 0 01-.08-.059s.042 1.28.256 1.941a.806.806 0 00.096-.138c0-.043-.016.357-.059.64-.059.282-.016.677-.016.677.144-.117.304-.208.475-.283.245-.096.64-.394.88-1.061.139-.373.25-.763.325-1.157.08.149.133.314.16.48.016.202.395.096.395.096l.08-.88.48-2 .437-1.238 2.102-3.274 3.802-2.928 3.318.762 2.8-3.802-4.822-2.896-4.565.48-4.144 5.733-3.318 5.2-.592.864z" clip-rule="evenodd"/>
  <path fill="#D3AE4D" fill-rule="evenodd" d="M61.879 29.846s-.283.059-1.099.48c-.816.421-1.381.56-1.701 1.179-.32.619-.342 1.115-.342 1.115s.56-.24.88-.326c.342-.08.72-.058.678.08a.8.8 0 01-.16.256s.64-.016.624.299c-.016.314-.123.661-.24.816-.123.16-.624.395-.678.581-.138.379.059.395-.016.704-.058.299-.325.88-1.194 1.904-.896 1.019-1.28 1.739-1.28 1.739s-.438-.816-.662-1.52c-.16.08-1.018.56-1.018.56l-1.99-6.934.043-.463s.176-.22.219-.624c-.299-.096-.342-.177-.736-.56-.395-.38-.72-.843-1.382-1.158-.096-.176-.218-.421-.704-.517-.485-.096-.778-.176-.778-.176s.256-.096.378-.299c-.298.043-.544.139-1.194.123-.662-.016-.736-.043-1.099.016s-.8.219-.965-.341c-.176-.14-.56-.017-.88.458-.326.475-.438.859-1.062 1.046a2.175 2.175 0 01-.282.778c-.176.299-.464.598-.843 1.046-.597.703-.501 1.86-1.456 2.74-.965.88.16-2.442.16-2.442l1.536-3.68 4.379-4.282 6.794-.46.662 3.52 3.317 1.142 2.09 3.2z" clip-rule="evenodd"/>
  <path fill="#CAA13E" fill-rule="evenodd" d="M62.956 30.625l-2.859-4.118-2-1.536s-1.424-2.618-1.52-2.704c-.08-.058-1.424-.202-2.282-.256l.16.395c.186.059.352.17.48.325.378.438.624 1.264-.246 2.144.342.123.48.16.78.123-.3.357-.977 1.115-1.02 1.781-.042.544.3.704.3.704s-.518.598-.545 1.6c.245-.277.512-.528.8-.762.597-.48 1.424-1.02 1.984-1.36-.005.144.01.282.059.42 0 0 1.045-.858 1.92-.48.394.177.218.737.218.737s.544-.203.923.176.923 1.36 1.195 1.739c.122.176.437.517.762 1.045.443.736.811 1.515 1.1 2.32.015-.325.08-.779.64-.779l-.849-1.514z" clip-rule="evenodd"/>
  <path fill="#F4EFC8" fill-rule="evenodd" d="M20.14 42.32s-.203-.5 0-1.482c.203-.981.517-1.44.624-2.88.107-1.44 1.045-3.237 1.045-3.237l2.598-1.179 1.834.501.544 2.459-2.32 1.28s-.122.544-.779.976c-.655.437-1.562.779-1.78 1.221-.129.272-.225.56-.284.859 0 0-.66-.139-1.06.299-.422.453-.406.848-.422 1.184z" clip-rule="evenodd"/>
  <path fill="#EBCC73" fill-rule="evenodd" d="M25.383 41.665s-.219.139-.379.48c-.16-.256-.544-1.798-.56-3.179-.016-1.381-.101-1.728.219-2.203.32-.474 1.573-.98 1.397-1.84-.176-.816-.922-1.157-1.834-.922-.64.16-1.115 1.52-1.782 2.203-.501.517-1.098.437-1.264.72-.218.378-.016.762-.08 1.002-.016.08-.218.517-.581 1.045-.736 1.062-1.984 2.555-2.144 3.9.059-.764.016-.78.219-1.617l-.123-.203.8-2.623.517-2.16 1.158-3.617 2.037-3.696 1.984-2.218 2.064.139.24 3.098 1.184 5.819 2.485 3.056-3.978 2.677-1.579.139z" clip-rule="evenodd"/>
  <path fill="#E5C66B" fill-rule="evenodd" d="M26.62 42.764s-.341.08-.459.015c-.122-.064-.24-.138-.202-.218.037-.08.256-.219.256-.283a.222.222 0 00-.203-.24c-.187-.026-.24.096-.24.096s-.176-.139-.325-.16c.085-.01.17-.016.26-.016a2.482 2.482 0 00-.703-.203c.203-.122.597-.48.859-.48.26 0 .42-.042.378-.175-.042-.134-.24-.342-.458-.422.08-.096.138-.24-.06-.64-.202-.394-.122-.661-.058-.762.059-.123.262-.342.358-.48.096-.14.176-.326.34-.422.08-.059.342-.16.598-.256.283-.096.518-.218.678-.096.176.123.096.283.096.283s.56-.203 1.06.059c.502.24 1.724.394 1.724.394l.437.88-2.896 2.486-1.195.597-.245.043z" clip-rule="evenodd"/>
  <path fill="#E6BD62" fill-rule="evenodd" d="M30.642 38.705s-.896.597-1.1.816c.124.016.326.096.24.218-.095.123-.676.544-1.002.94a6.21 6.21 0 00-.778 1.14c-.123.22-1.046.86-1.36.94.66 0 2-.817 2.5-.817-.015.24.14.517.422.544.283.022 1.099.176 2.203-.501 1.099-.661.736-1.157 1.195-1.483.88-.581 1.237-1.099 1.722-1.424.486-.325.736-.395.736-.395s.016-.24.16-.218c.08.01.15.064.176.138 0 0 .843-.597 1.92-.762-.026-.01-.042-.032-.058-.059 0 0 .08-.042.096-.08 0 0 .058-.08.096-.042.037.037.096.34.176.464.176-.08.517-.843.517-.843l.816-2.336v-2.133l-.64.122-4.8 2.038-2.912 3.018-.325.715z" clip-rule="evenodd"/>
  <path fill="#B6933F" fill-rule="evenodd" d="M44.46 28.23a2.77 2.77 0 00.736-.299c-.096.262-.096.544-.517 1.158-.422.613-.438.704-.78 1.344-.34.661-.378 1.616-.703 2.037.144-.07.299-.117.459-.138 0 0-.326.282-.46.58-.138.3-.378.924-.975 1.302-.597.379-1.36.624-2.176 1.52-.816.88-1.659 2-2.08 2.4.218-.378.517-1.141.597-1.642.08-.502-.016-1.1.123-1.766.139-.661.139-1.141.8-2.298.661-1.158 1.797-5.18 1.797-5.18l2.443-.778.736 1.76z" clip-rule="evenodd"/>
  <path fill="#C49937" fill-rule="evenodd" d="M42.7 26.747s-.736 1.062-.939 2c-.203.939-.016.859-.139 1.318a1.673 1.673 0 000 .858c.256-.41.603-.757 1.02-1.002.692-.422 1.263-.72 1.6-1.078.34-.378.623-1.002 1.36-1.482-.3-.043-.72-.176-.8-.16.298-.342 1.194-.86 2.1-1.483.896-.64.843-.896 2.3-1.536-.48.08-.705-.043-1.1 0 .16-.341.72-.501 1.28-1.061.56-.56-.357-1.382-.357-1.382l-4.267 2.582-2.058 2.426z" clip-rule="evenodd"/>
  <path fill="#DFC068" fill-rule="evenodd" d="M31.121 24.822l.096-.778 1.221-1.958 1.28-3.434v-4.705l-.096-2.72.198-1.776.154-.565.166-.219 1.04.54 1.44 1.957.138 3.78-1.397 5.963-4 4.358-.24-.443z" clip-rule="evenodd"/>
  <path fill="#A88F33" fill-rule="evenodd" d="M34.3 8.449s-.64.016-.779 2.677c-.139 2.662-.203 4.064-.299 5.382-.096 1.317-.325 2.117-.437 2.896-.112.778-.176 1.834-.544 2.485-.16.299-.501 1.237-1.301 1.941-.896.779-2.24 1.318-2.443 1.36-.357.08-2.16.262-2.896.662-.261.138-.704.298-1.2.762-.981.88-2.282 2.459-3.221 4.363-1.44 2.843-2.88 10.859-2.88 10.859l.325-.544s.043-.72.763-1.984c.704-1.264.501-2.678 1.482-5.099.38-.923.86-2.117 1.44-3.141.923-1.659 2.038-3.083 3.163-3.862 1.835-1.264 3.861-1.536 3.861-1.536l2.177-1.44s.378-.736.88-1.578c.703-1.179 1.6-2.502 1.797-4.416.298-2.838-.422-4.699-.379-6.384.043-1.686.059-2.923.395-3.222.341-.298.096-.181.096-.181z" clip-rule="evenodd"/>
  <path fill="#C99E3D" fill-rule="evenodd" d="M34.3 21.147s.96-2.362 1.397-4.458c.08-.422.24-.843.283-1.179.203-1.984.256-2.8 0-3.883-.203-.8-.976-1.52-1.381-2.08-.395-.58-.582-.8-.502-.922.08-.123.395-.326.704-.299a2.41 2.41 0 011.723.8c.624.72 1.115 3.163 1.115 3.163l.517 3.226 1.317 4.06-5.173 1.572z" clip-rule="evenodd"/>
  <path fill="#B58634" fill-rule="evenodd" d="M43.319 18.689s-.176.08-.501 0a.716.716 0 01-.326.677c-.341-.138-3.52.139-3.52.139s-1.482-.261-1.941-2.219c-.325-1.301.24-3.098.059-4.282-.283-1.739-.678-2.08-.72-2.619-.043-.539-.08-.677-.08-1.019-.176-.042-.283-.096-.459-.096-.043-.16.043-.298-.139-.581.096.043.763.123 1.536.859.64.597.64.816.736.938.123.123 1.099.96 1.52 1.798.422.837 1.238 3.504 1.424 3.941.06.176.176.357.48.763.47.576 1.158 1.541 1.931 1.701z" clip-rule="evenodd"/>
  <path fill="#A88F33" fill-rule="evenodd" d="M38.076 10.523c.49.79.928 1.611 1.318 2.46.474 1.076.762 1.956 1.36 2.676-.326-.938-.896-2.784-1.238-3.44-.378-.688-1.152-1.434-1.44-1.696z" clip-rule="evenodd"/>
  <path fill="#E6C367" fill-rule="evenodd" d="M32.578 23.825s-.816.202-2.336 1.002a22.71 22.71 0 01-1.44.678c-1.2.544-2.486 1.045-3.504 1.317.08.096.123.139.123.139s0 .394.218.624c-.122.122-1.739 1.221-1.264 4.901.325-.123.704-.283.763-.283.096.016.122.283.24.283.117 0 .517-.16.938-.704-.016.219-.255 2.421 1.046 3.899.24-.283.859-1.222.859-1.222l.015-.298s.06-1.046.395-2a5.228 5.228 0 011.003-1.659l3.461-4.944-.517-1.733z" clip-rule="evenodd"/>
  <path fill="#DCBA5A" fill-rule="evenodd" d="M29.34 31.083c-.16.112-.33.198-.517.256-.059-.202-.139-.896.341-1.578.56-.816 1.781-1.878 2.117-2.72.22-.544.123-1.904 2.065-3.643 1.94-1.739 2.704-2.336 2.704-2.336l3.136-1.573 3.86 1.52-1.914 7.514-1.488 3.52-5.92-1.114-4.384.154z" clip-rule="evenodd"/>
  <path fill="#E9CE77" fill-rule="evenodd" d="M31.602 29.046l.736-.923v-.656s.816-.218 1.696-1.114c.88-.896 2.1-2.619 3.178-2.518 1.078.123 1.184 2.336 1.222 2.96.042.624.176 2.038.394 2.8.246.763-2.624 3.643-2.624 3.643l-1.946 1.483-2.656-5.675z" clip-rule="evenodd"/>
  <path fill="#CDAE50" fill-rule="evenodd" d="M33.879 36.72s.597-.938.16-1.14c.256-.582.736-1.2.736-1.2s.341-.844 1.44-1.878c1.099-1.035 1.781-1.723 1.957-2.422a6.05 6.05 0 00.176-1.38c.118.095.246.18.379.255.176.08 1.019.779.896 2.176-.123 1.403-.64 1.984-.64 1.984s-.501.502-.859.763c-.378.256-.517.56-1.157.581a.68.68 0 01.219-.122s-.662-.08-1.02.24c-.356.325-1.114 1.317-1.492 1.62-.374.252-.795.529-.795.523z" clip-rule="evenodd"/>
  <path fill="#D2A83E" fill-rule="evenodd" d="M60.78 20.987a9.794 9.794 0 00-2.976-.581c-1.7-.059-4.18.043-6.618.059-2.624.016-5.003-.896-8.299-1.062-.544-.325-1.92-1.738-6.224 1.264.256-.016 3.125-.661 4.117.582 1.003 1.237.72 3.338.582 3.84-.262 1.114-1.099 2.74-1.44 3.882-.342 1.142-.262 1.739-.502 2.539-.245.8-.778 1.2-.464 2.117.422-.256.64-.256 1.344-1.834.704-1.58.56-2.704 1.723-4.038 1.141-1.344 3.04-3.178 3.76-3.642.72-.46 6.459-3.44 12.459-.598 1.456-.15 2.538-2.528 2.538-2.528z" clip-rule="evenodd"/>
  <path fill="#C29637" fill-rule="evenodd" d="M39.078 19.883a.659.659 0 00-.042-.176 1.34 1.34 0 00-.22-.325s-1.423-.256-2.143-.176c-1.264.139-2.405 1.701-2.939 2.501-.533.8-1.2 2.038-1.92 2.678a.25.25 0 00-.042-.176s.042.058-.043.138c-.08.08-.08.123-.043.16l.123.123c.043 0 1.157-.501 2.677-1.92 1.616-1.483 2.854-2.24 3.504-2.501.363-.15.72-.256 1.088-.326z" clip-rule="evenodd"/>
  <path fill="#AC8132" fill-rule="evenodd" d="M66.705 13.804s-.261.325-.581.677c-.72.763-1.659 1.616-2.459 2.501-.762.843-1.616 1.499-2.581 2.598-.966 1.098-2.08 2.32-2.363 2.677-.256.357-.458.939-.458 1.237-.14-.096-.3-.202-.3-.202.07.128.15.245.246.357.203.283.517.64.677.859.198.277.342.592.422.922.096.016.72.139 1.498-1.141.78-1.28 1.798-2.677 1.798-2.677l1.616-2.406 1.019-2.037 1.28-2.283.186-1.082z" clip-rule="evenodd"/>
  <path fill="#A88F33" fill-rule="evenodd" d="M68.364 12.166s-.982.8-1.36 1.28c-.379.48-1.28 1.739-1.28 1.739l.325-.043 1.643-1.456.64-1.141.032-.379z" clip-rule="evenodd"/>
  <path fill="#A67A2E" fill-rule="evenodd" d="M68.06 76.465s-.016-.662.357-1.062c.379-.394 1.344-.981 2.283-3.162.938-2.182 1.045-2.678 1.045-2.678s-1.685 1.44-2.72 1.782c.245-.502.379-.859.501-1.115-.138-.123-.72-.256-.778-.325.325-.326.501-1.115 1.157-1.643.843-.64 2.379-1.739 3.573-2.72 1.195-.981 3.542-3.259 3.846-3.925.176.256.218.421.218.421s-1.178 1.536-1.797 2.517c-.544.843-.501 1.318-.501 1.318l1.114-.48s.326 1.194-1.141 3.018c.64-.245.896-.096 1.264-.298-.597.378-1.424.896-2.203 2.32-.762 1.424-1.797 3.082-3.541 4.117-1.701 1.093-2.677 1.91-2.677 1.915z" clip-rule="evenodd"/>
  <path fill="#8C6228" fill-rule="evenodd" d="M63.676 21.83s-.662 1.381-.763 2.459c-.016.26-.08.458-.08.762-.016.96.059 2.038-.16 2.539-.08-.203-.123-.341-.203-.421-.122.34-.34 1.397-.517 1.797-.08-.256-.256-1.157-.24-2.219.016-1.061.043-1.264.043-1.482-.043.325-.256.762-.342 1.018-.122-.218-.256-.501-.42-.736-.097.16-.22.395-.326.518a6.691 6.691 0 01-.08-.72c-.016-.422-.043-.96-.016-1.078.042-.218.378-1.077 1.098-1.861.86-.939 1.74-2.741 2-3.301.262-.56 1.36-2.88 1.36-2.88h.843l-1.221 2.784s-.736 1.52-1.115 2.08-1.184 2.16-1.536 2.784c.256-.342.475-.518.736-.843.245-.224.939-1.2.939-1.2z" clip-rule="evenodd"/>
  <path fill="#CBA94C" fill-rule="evenodd" d="M68.38 12.065a3.569 3.569 0 01-.64 1.157c-.502.598-1.579 1.398-2.102 2.038-.48.624-1.44 2.32-1.002 4.336.16-.438.464-1.302 1.264-2.283.8-.981 1.658-2.101 2.08-2.976.421-.88.474-1.579.474-1.579l.16-.202-.096-.46-.138-.031z" clip-rule="evenodd"/>
  <path fill="#A88F33" fill-rule="evenodd" d="M84.76 65.728s-.326-.88-.422-1.685c-.096-.805.16-.96-.139-1.877-.176-.56-.501-.48-.581-.56-.08-.08-.139-.923-.123-1.382.016-.458-.016-1.06-.096-1.317-.122-.096-.202-.176-.378-.778-.203-.598-.3-.896-.395-1.078-.096-.181-.379-.341-.379-.517 0-.358.326-.544.326-.64-.016-.203-.262-.043-.326-.096-.08-.096.203-.678.096-.763-.042-.042-.325.299-.394.203-.08-.096-.176-1.062-.326-1.702-.138-.623-.282-1.077-.298-1.264-.016-.175-1.115-3.317-1.382-4.08a20.462 20.462 0 01-.544-1.957c-.08-.379-.138-1.157-.176-1.077-.037.08-.016.474-.08.464-.058-.016-.256-1.398-.325-1.616-.059-.219-.395-.96-.48-1.499-.08-.544-.256-1.957-.379-2.922-.122-.966-.176-1.36-.176-1.6a9.763 9.763 0 00-.096-1.766c-.16-1.019-.48-2.256-.762-2.976-.544-1.36-1.984-4.837-2.24-5.707 0-.218.282-.096.282-.096s.704 1.766 1.222 3.12c.5 1.36.98 2.555 1.098 2.678.096.123.859 1.456 1.195 3.642.336 2.187.459 4.198.661 5.542.096.64.176 1.317.379 2 .219.736.56 1.498 1.003 2.661.378.982.66 1.797.816 2.502.176.895.176 1.578.282 2.02.096.38.246 1.142.582 2.24a64.57 64.57 0 001.178 3.398c.662 1.765.96 3.237 1.062 4.021.096.822.394 3.622.314 4.464z" clip-rule="evenodd"/>
  <path fill="#BE9C44" fill-rule="evenodd" d="M68.418 11.964l-.043.096s.123.042.096.202c0 .224-.01.443-.043.662-.043.282-.123.501-.138.677 0 .379.058.816-.48 1.899-.16.298-.257.56-.342.736-.203.437-.245.501-.421.704.282-.16 1.301-.8 1.819-.704-.358.202-.897.597-1.238 1.114.08.016.421.08.96 0 .896-.138 1.904-.458 2.784-.394.966.058.582-1.158.582-1.158l-1.11-2.442-2.101-1.483-.325.09z" clip-rule="evenodd"/>
  <path fill="#A17C34" fill-rule="evenodd" d="M73.905 30.268s-.939-.94-1.317-4.16c-.379-3.238-.299-8-.299-8l-.763-1.862s-.16-1.237-.56-1.701c-.4-.464-1.178-1.237-1.536-1.616-.357-.379-.762-.896-1.002-.981.122-.203.661-1.344 2.741-1.36 2.08-.016 2.72 1.14 2.939 1.562.218.422 1.194 2.24 1.562 5.707.342 3.461.358 3.723.3 4.917-.044.662-.262 2.203-.64 3.846-.353 1.392-.732 2.949-1.425 3.648z" clip-rule="evenodd"/>
  <path fill="#8C6228" fill-rule="evenodd" d="M70.96 33.025c.316.021.625-.048.897-.203.299-.016 1.381.123 2.219-.939.058.24.202.896-.176 1.483.202-.203.5-.283.544-.341.016.298.298 1.221-.896 3.461.325-.357.704-.341 1.045-.379.016.422.245 1.835-.357 2.598-.395.517-1.046.357-1.046.357.01-.112.01-.23 0-.341-.016-.219-.096-.438-.042-.582a2.973 2.973 0 01-.843-.581c-.704-.661-1.616-1.797-1.685-2.64-.08-.939.762-1.141.762-1.141a.988.988 0 01-.176-.219c-.042-.133-.085-.352-.245-.533z" clip-rule="evenodd"/>
  <path fill="#92723A" fill-rule="evenodd" d="M64.72 22.849s-.042-.059-.255.202a7.97 7.97 0 00.096-.736c.101-.218.234-.42.394-.597-.122.24-.202.459-.202.459s.299-.56.736-.896c.298-.24.677-.358.843-.582.175-.24.138-.282.175-.325 0 0 .395-.256 1.003-1.019.08-.096.203-.202.283-.298.138-.059.458-.203.842-.395.395-.219.843-.517 1.115-.64.544-.24 1.115-.219 1.382-.597.202-.059.42-.662.378-1.179.299.123 1.835 1.077 2.363 3.163.378 1.482-.299 3.76-.582 4.864-.282 1.098-.325 1.92-.72 2.416-.5.666-2.117 1.6-2.517 2.064-.341.378-1.36 1.344-1.317 2.037.043.517.677.8.816.896.139.096.139.219.395.16s.357-.176.464-.176c.122.016.122.043.175.043.043 0 .08-.006.123-.016 0 0-.042.736-1.765.96-.123.016-.245.058-.395.08.203-.096.326-.096.544-.395-.245-.043-.938-.08-1.114-.139.058-.096.245-.357.394-.48.139-.122-.016-.16-.138-.096-.209.144-.411.294-.598.46-.203.175-.379.42-.704.64-.096-.326-.08-.94.299-1.382-.096.016-.283.298-.464.24a2.575 2.575 0 01.058-.88c.097-.363.624-1.003.624-1.003l2.54-4.539.543-3.44-5.813 1.126z" clip-rule="evenodd"/>
  <path fill="#B18E3E" fill-rule="evenodd" d="M64.583 23.04s-.139.097.139.283c-.043.059-.14.256-.262.395-.138.16-.282.261-.341.395-.123.282-.219.48-.219.597 0 .123-.042.896-.378 1.397-.123.176-.262.48-.358.678-.203.357-.379.64-.421.8-.08.282-.139 1.06-.139 1.06s.176-.218.245-.298c-.095.203-.202.422-.357.582.096-.08.379-.283.859-.704.661-.56 1.701-1.5 2.96-2.24-.379.138-.704.138-.966.176.203-.203 2.022-2.336 2.977-2.54a.381.381 0 00.08-.26l-.817-.08-1.658.357-.24-1.28-1.104.683z" clip-rule="evenodd"/>
  <path fill="#543E26" fill-rule="evenodd" d="M67.223 30.326s-.219.219-.421.763a2.487 2.487 0 01-.395-.544c-.299-.502-.763-1.142-1.835-.779-.016-.341-.042-.517 0-.762.176-.043.72-.475 1.264-1.115.379-.438.736-.939.982-1.579.16-.122.437-.325.8-.56.517-.357 1.141-.843 1.237-1.381-.245.096-.763.341-1.536.299.299-.14.763-.283.704-.88.123-.08.219-.14.219-.14a.846.846 0 00-.283-.042c-.016-.059-.043-.139-.176-.096-.133.043-.16.043-.176.096-.059.016-.245 0-.379.096-.138.096-.517.421-.661.475.059-.096.139-.24.139-.24s-.395.043-.678.16c-.517.176-1.114.501-1.722.816.058-.096.08-.16.122-.176.043-.016.139-.043.139-.059s-.043-.16-.016-.219c.181-.383.395-.752.64-1.098.283-.379.341-.923.341-.923l1.238-.624 3.477-.8 2.256.139-.283 1.563-1.333 2.725-1.141 2.485-1.302 1.52-1.221.88z" clip-rule="evenodd"/>
  <path fill="#806031" fill-rule="evenodd" d="M72.86 23.564s-1.36 1.68-1.738 1.941c.245-.517 1.738-3.6 2.282-4.459-.122-.096-.282-.096.096-1.6-.325.763-.437 1.158-.704 1.36-.266.203-.298.139-.48.139a.388.388 0 00.043-.203s-1.141-.138-1.92-.138c-.779 0-2.32.421-3.179.762-.677.283-1.06.283-1.3.459-.246.203-.38.421-.502.48-.096.059-.56.203-.662.357-.096.16-.256.342-.256.379 0 .037-.042.096.08.059.043-.016.342-.176.678-.379.458-.256 1.018-.56 1.424-.736 1.157-.459 1.52-.379 2.037-.48.544-.096 1.317-.325 1.835-.325.517-.016 1.498 0 1.722.042-.096.08-.176.176-.138.518 0 .096-.08.202-.16.437-.24.661-.704 1.765-.96 2.32-.358.763-.763 1.397-.96 1.797-.203.395-.64 1.44-1.078 2-.437.56-.66.896-.8 1.019-.138.123-1.114.843-1.045 1.099.176-.059 1.301-.48 2.117-1.398.816-.917.982-1.482 1.616-1.984.635-.501 1.142-1.344 1.44-2.037.256-.65.198-.853.512-1.43z" clip-rule="evenodd"/>
  <path fill="#B6903C" fill-rule="evenodd" d="M43.564 36.123s-.176.736-.581 1.1c-.395.357-1.1.66-1.18 1.263-.095.598.705.896.705.896s-.437.72-.437 1.264c0 .56-.016.661.042 1.2a.57.57 0 00-.16.16s.043.517.438.843c.394.325.736.517.938.437.032.064.059.133.08.203 0 0 .299-.763.502-1.424.202-.677.378-.581.458-1.499.08-.917.96-2.485.96-2.485l.603-1.339-.976-.762-1.392.144z" clip-rule="evenodd"/>
  <path fill="#685026" fill-rule="evenodd" d="M45.382 37.44c-.202.209-.389.428-.554.662-.256.358-.459.678-.843.816-.384.139-.624.139-.597.517.021.38.378.544.581.736.219.203.395.545.299.923.122-.058.341-.122.544-.56.202-.437 1.616-3.099 1.616-3.099l-1.046.006z" clip-rule="evenodd"/>
  <path fill="#D4B968" fill-rule="evenodd" d="M50.962 31.302s.122-.325 0-.56c-.123-.24-.859-.325-1.222-.597-.378-.283-.842-.48-1.22-.357.058-.139.282-.438.095-.502-.176-.058-.843.24-1.019.379-.176.139-.58.299-.66.395-.08.096-.22.282-.3.202-.08-.058-.122-.202-.256-.122-.133.08-.8.624-.922.938-.123.315-.395 1.019-1.222 1.819-.826.8-1.184 1.317-.938 1.616.245.299.357.08.394.341.032.256.016.512-.042.763-.096.421-.256.816-.043.896.56.176 1.099-.16 1.221-.059.24.219-.138 1.003.438 1.158.581.16 1.157-.139 1.157-.139l2.117-1.141 2.038-1.078 1.045-2.064-.56-1.722-.101-.166z" clip-rule="evenodd"/>
  <path fill="#CCA849" fill-rule="evenodd" d="M48.962 36.23s-.358-.544.08-1.018c.437-.48 1.061-.678 1.301-.976a.366.366 0 00-.176-.123c.16-.288.405-.523.704-.667-.123-.122-.283-.218-.459-.218-.394 0-.64.24-1.002.24-.358 0-.395-.176-.395-.176s.597-.059.544-.326c-.059-.282-.16-.282-.16-.282s1.157-.48 1.36-.736c.203-.256.176-.56.219-.678.138 0 .938-.421 1.264-.24.325.182.096.662.096.662s.981-.736 1.477-1.456c.437.042.64-.299.96-.299.395 0 1.019.544 1.141 1.696.08.661.203 1.045.08 2.219-.058.661-.042 2.08.16 2.784.14.56.46.501.46.501a.917.917 0 01-.284.437c-.218.203-.245.736-.218.939.032.15.074.293.122.437 0 0-.256.299-.325.502-.059.202-.325.341-.517.341s-.096-.016-.358 0c-.26.016-.34.059-.5 0-.16-.059-.284-.123-.22-.64.06-.517-2-1.723-2-1.723l-3.36-1.2h.006z" clip-rule="evenodd"/>
  <path fill="#585136" fill-rule="evenodd" d="M45.1 41.345s.736.981 3.76.981c1.44 0 1.94-.139 2.24-.219.325-.08 1.536-.56 2.757-2 1.099-1.3.859-1.834.859-1.834l-.64-.096-2.08.282-6.155 2.624-.741.262z" clip-rule="evenodd"/>
  <path fill="#252211" fill-rule="evenodd" d="M47.356 41.585s-2.624.581-2.624-1.078c0-1.615 1.616-3.317 2.022-3.615.421-.3 1.424-.64 1.424-.64h2.421l.459 1.22-.203 2.64-3.499 1.473z" clip-rule="evenodd"/>
  <path fill="#C3B378" fill-rule="evenodd" d="M49.778 36.747s-.502-.464-1.643.16-2.064 1.92-2.123 3.1c-.058 1.044.86 1.818 2.283 1.86 1.061.043 1.701-.08 2.021-.16-.08-.096-.5-.624-.5-.624l-.038-4.336z" clip-rule="evenodd"/>
  <path fill="#E6D89C" fill-rule="evenodd" d="M49.282 37.004s-.123-.096-.48.096c-.299.16-.736.58-1.078.88-.218.176-.357.256-.48.394-.501.597-.922 1.579-.677 2.064.245.485 1.045 1.045 3.083.661l-.374-4.1.006.005z" clip-rule="evenodd"/>
  <path fill="#252211" fill-rule="evenodd" d="M48.62 38.011s-.325.502-.325 1.302c0 .816.464 2.117 2.16 2.218 1.301.08 2.176-1.877 3.125-2.64.72-.58 1.158-.597 1.158-.597s-.736-.8-2.704-1.834c-1.942-1.046-4.118-1.184-5.302.42.56-.042 2.363-.5 2.363-.5l.88.282-1.355 1.35z" clip-rule="evenodd"/>
  <path fill="#6F674D" fill-rule="evenodd" d="M51.159 39.068c-.059-.123-.096-.283.139-.326.234-.042.34-.016.42.16.08.176.16.326.043.395-.122.07-.437.005-.602-.23zm-.379-1.142s-.08.059-.043-.058c.017-.14.123-.38.38-.326.255.054.202.342.16.422-.044.08-.257.218-.422.16a.13.13 0 01-.096-.166c.005-.005.01-.021.021-.032z" clip-rule="evenodd"/>
  <path fill="#AC924C" fill-rule="evenodd" d="M28.88 38.443s.64.48 1.382.464c.736-.016 1.686-.778 2.117-1.264.257-.282.48-.58.72-.816.203-.202.342-.298.438-.437.139-.16.282-.459.357-.56-.176.139-.437.379-.704.544-.256.16-.816.459-1.045.544-.219.08-2.486 1.28-2.486 1.28l-.778.245z" clip-rule="evenodd"/>
  <path fill="#9F8E57" fill-rule="evenodd" d="M29.857 32.47s.358-.24 1.046-.394c.661-.16 2-.283 2-.283l1.098.48.438 1.659-.8 1.722-1.019.64-1.157-1.861-1.606-1.963z" clip-rule="evenodd"/>
  <path fill="#EAC970" fill-rule="evenodd" d="M28.418 33.947l-.379.283s.096-.176.176-.72c.08-.544.501-1.861 1.115-2.624.613-.763.597-.72.597-.72a.419.419 0 00-.325.08c.08-.181.597-.821 1.114-1.141.518-.32.72-.422 1.264-.16.544.261.678.394 1.078.378.394-.016.736-.437.736-.437s.08.256-.219.859c-.299.597-1.483 1.818-1.483 1.818l-2.458 1.68-1.216.704z" clip-rule="evenodd"/>
  <path fill="#D7BC6B" fill-rule="evenodd" d="M30.236 32.268s1.782.24 2.32-.256c.016.058.08.058.08.096a.12.12 0 01-.042.08.978.978 0 01.176-.016c.069.021.144.037.218.042a.987.987 0 00.176-.016.292.292 0 01-.122.203c.08 0 .16.016.16.08s.016.261-.08.299a.389.389 0 01-.246-.016.962.962 0 00.123.437c.16.299.501.64.96.544 0 0 .24.581-.779 1.877-.138.176-.282.422-.458.624-.07.155-.123.315-.16.48 0 0 1.722-.661 2.218-2.176.502-1.52.598-3.018.502-4.416-.016-.394-.08-.677-.176-.88-.24-.501-.923-.421-1.195-.138-.395.394-1.061 1.381-1.984 2.064-.928.666-.97.784-1.69 1.088z" clip-rule="evenodd"/>
  <path fill="#585136" fill-rule="evenodd" d="M28.103 34.449s-.341.203-.518.96c-.175.779.16 1.723.358 2.021.197.299.64 1.115 1.563 1.158.229 0 .453-.048.66-.14.32-.148.625-.335.897-.56.395-.298.72-.56.677-.58-.096-.043-2.442-1.984-2.442-1.984l-.88-.987-.315.112z" clip-rule="evenodd"/>
  <path fill="#453A25" fill-rule="evenodd" d="M30.322 37.67s.474-.043.762-.219c.283-.176-1.658-2.1-1.658-2.1l.138 2.08.758.24z" clip-rule="evenodd"/>
  <path fill="#84754B" fill-rule="evenodd" d="M28.258 34.305s-.24.464-.24.581c-.043.395.08 1.643.175 2.037.096.422.624 1.062 1.302 1.062.421 0 1.002-.256 1.002-.325 0-.08-.597-.16-.762-.464-.096-.16-.139-.56-.16-.96-.016-.256-.016-.544.08-.64.218-.24.256-.94.256-.94l.778-1.44h-1.023l-1.222.764-.186.325z" clip-rule="evenodd"/>
  <path fill="#252211" fill-rule="evenodd" d="M27.959 34.747s.8-1.06 1.52-1.3 1.045-.097 1.045-.097l-.421 1.077-.597.662.042.341s-.096.896.502 1.52c.597.624 1.045.597 1.301.597s1.003-.218 1.381-1.114c.342-.843.624-1.92-.058-3.003-.667-1.077-1.835-1.12-2.064-1.12-.23 0-2.006.09-2.651 2.437z" clip-rule="evenodd"/>
  <path fill="#F7F7E7" fill-rule="evenodd" d="M48.497 38.347c-.298-.138-.016-.976.283-1.237.299-.261.677-.56 1.344-.597.24-.016.474.139.437.299-.059.298-.474.72-.858 1.018-.523.416-.864.672-1.206.517z" clip-rule="evenodd"/>
  <path fill="#F8F6DE" fill-rule="evenodd" d="M32.316 33.76c.219-.015.502.16.56.395.059.256-.139.78-.56.78-.341 0-.517-.422-.517-.545a.643.643 0 01.08-.283c.016-.02.058-.304.437-.346z" clip-rule="evenodd"/>
  <path fill="#D4C38B" fill-rule="evenodd" d="M29.164 33.947s-.56.256-.816.8c-.186.4-.24.848-.16 1.28.043.203.24.704.379.88.139.176.325.299.464.283.139-.016.421-.379.421-.597 0-.22.016-1.142.283-1.643.23-.501-.57-1.003-.57-1.003z" clip-rule="evenodd"/>
  <path fill="#E2D59D" fill-rule="evenodd" d="M29.244 33.91c-.096.059-.256.139-.219.24.043.096.379.16.501.395.14.24.14.501.096.624a.886.886 0 00.283-.203c.176-.202.395-.474.581-.474.123 0 .246.058.358.058.176 0 .357-.058.378-.24.043-.24-.34-.464-.56-.421.043-.16.096-.395-.08-.56-.176-.16-.736.123-.858.203-.123.08-.48.378-.48.378z" clip-rule="evenodd"/>
  <path fill="#CBAC5A" fill-rule="evenodd" d="M42.098 50.908l1.194-.352.342.24s.24.517.624.581c-.123.256-.438.48-.422.661.016.182.176.326.176.326s-1.077 1.781 1.046 3.573c-.502.203-1.142.48-1.483.64.24.059.763.16.976.357.213.198.219.256.421.379.203.123.326.283.283.357-.139-.08-.597-.325-.677-.096-.08.23-2 .139-2 .139l-3.238.624s.123-.325-.218-.624c-.395-.357-.88.016-1.398-.379-.677-.517-.704-1.114-.922-1.344.218-.138.661-.341 1.722-.48-.042-.08-.176-.325-.096-.544.096-.282.502-.464.38-.8.175-.042.255-.042.703-.597.421-.56.677-.677 1.003-.72.325-.043.517 0 1.114-.56.422-.395.283-.736.283-.736s.288-.09.187-.645z" clip-rule="evenodd"/>
  <path fill="#D6BC6F" fill-rule="evenodd" d="M38.562 51.083c.016-.08.08-.122.517-.08.438.043 3.206-.256 3.957-.298.763-.059 3.44-.016 4.742.256 1.301.277 2.624.597 3.258.762.64.176.843.24.816.326-.015.08-.16.16-.245.138-.08-.016-2.203-.661-2.853-.8-.656-.138-2.923-.501-4.16-.48-1.157.016-1.616-.016-2.598.096-.98.123-2.597.283-3.082.219-.475-.059-.373-.059-.352-.139z" clip-rule="evenodd"/>
  <path fill="#DFC677" fill-rule="evenodd" d="M45.079 57.425s1.659.896 2.256 2c.437.816-.256 1.221-.256 1.221s.939 0 .816.517c-.059.326-1.616 1.195-2.661 1.66-1.062.463-1.019.437-1.536.517-.502.08-1.878-.16-2.16.245-.283.405-.16.816-.08.88.08.058.736.138.736.138s-.139.38-1.499.422c-1.36.042-1.701.138-1.781.282-.08.14.256.06.88.16.624.097 1.498.16 1.498.16s-.282.246-1.018.438c-.843.219-2.16.421-2.555.661.203.139.501.341.64.358-.341.08-.816.26-.896.325.123.08.283.176.283.176s-.683.816-1.078 1.019c-.394.202-2.677 1.264-3.461 1.06-1.957-.517-2.203-2.66-2.677-2.82-.72-.246-1.062.24-1.702-.096.283-.203.438-.326.736-.46-.325-.16-2-1.22-2-1.22a12.267 12.267 0 00-.581-1.115c-.325-.56-.8-1.302-1.157-1.958-.779-1.44-.816-2.1-1.52-2.922.122-.16.544-.139.544-.139l5.898 1.942 10.459.303 2.72-3.882 1.152.128z" clip-rule="evenodd"/>
  <path fill="#C4A859" fill-rule="evenodd" d="M29.585 63.35c.064.07.139.128.219.176.202.139.501.299.704.544.08-.122.282-.341.64 0 .357.342.8.096 1.077.176.283.096.299.139.299.139s.16-.139.517-.283c.219-.08.48-.138.763-.218.256-.059.544-.139.736-.139.176.123.816.8 3.381-.203 2.421-.938 2.976-1.045 3.381-.896.043-.096.08-.282.704-.256 0-.256-.517-1.141-.517-1.141l-2.859-.976h-1.562l-4.683.859-2.597 1.482-.203.736z" clip-rule="evenodd"/>
  <path fill="#927D49" fill-rule="evenodd" d="M28.023 61.708s.058.437.704.895c.64.46.842.736.842.736s.123-.16.219-.325c.096-.176.176-.379.341-.437.325-.139 1.061.123 1.221.08.14-.043.096-.325.24-.325.342-.017.56.218.678.218.123 0 .421-.016.459-.08.037-.064.058-.736.517-1.061.501-.358 1.114-.203 1.28-.123 0 .123.016.422.341.438.325.016.357-.043.64.058.283.096.624-.016.779.459.139-.043.464-.08.379-.544.16-.123.298-.203.64-.678.08-.122.218-.255.325-.437.282 0 .624-.059 1.077.341-.139.096-.218.16-.256.256.117.118.224.246.326.38.122.16.202.357.357.394.341.096.896-.043 1.52 0 .597.042 1.099.256 1.317.394.08-.042.08-.058.283-.016.203.043.357.06.139-.202.122.059.256.176.378.059.123-.118.219-.3.56-.342.341-.042.464.016.597-.341.176-.438-.437-.438-.437-.438s.283-.26.598-.597c.378-.357.816-.816.922-1.381.176-1.045-.843-1.179-.843-1.179l-4.944 1.52-6.042-.298-5.157 2.576z" clip-rule="evenodd"/>
  <path fill="#6E6342" fill-rule="evenodd" d="M23.58 47.425s-.16.203-.256.677c-.1.475-.058.422-.138.763-.08.341-1.078 3.722-.704 4.864.373 1.141 1.018 1.563 1.424 2.485.08.203.16.325.202.502.14.597.016 1.06.176 1.658.06.203.203.438.422.677.48.502 1.264.977 1.6 1.318.474.501 1.157 1.52 2.021 1.616.464.059 1.115-.139 1.659-.459.48-.299.778-.72 1.28-.96.357-.176.736-.245 1.077-.325.704-.139 1.344-.16 1.723-.08.581.122 1.957.544 2.72.544.597-.01 1.19-.09 1.765-.245 1.157-.342 2.555-.923 3.477-1.184.544-.16.977-.203 1.425-.3.762-.175 1.397-.42 1.765-.88-.24-.282-.544-.72-2.16-.703-1.835.042-3.958 1.061-5.003 1.221-1.045.16-1.499.299-2.661-.122-1.142-.427-1.179-.704-1.179-.704s-1.2-.838-1.701-2.976c-.502-2.14 0-3.697 1.301-5.18.342-.378.256-.72.256-.72s.859-1.157.624-2.24c-.256-1.076-1.92-.858-1.92-.858l-9.195 1.61z" clip-rule="evenodd"/>
  <path fill="#39331F" fill-rule="evenodd" d="M24.961 51.03a.822.822 0 00-.096.438c.016.218.08.5.736 1.14.56.56.437 1.18.437 1.18s.283.058 1.046-.3c.597-.282.8.22.8.22.176-.091.362-.15.56-.176.176-.016.346-.07.501-.16 0 0 .704.72 1.317 1.06.56.3.88.502 1.158.3.256-.176.256-.544.24-.704a2.2 2.2 0 00-.24-.422c-.176-.256-.464-.56-.48-.8-.043-.56.421-1.221.325-1.381-.096-.16-.459-.203-1.36.123-.933.298-4.944-.518-4.944-.518z" clip-rule="evenodd"/>
  <path fill="#292311" fill-rule="evenodd" d="M27.084 54.646s-.458-.437-.298-2.554c.197-.006.39.016.581.058 0-.005.25 1.638-.283 2.496z" clip-rule="evenodd"/>
  <path fill="#252211" fill-rule="evenodd" d="M23.799 45.809a1.25 1.25 0 00.176-.16c-.16.298-.896 1.498-.299 3.381.598 1.877 2.102 3.275 3.958 3.344 1.85.064 2.826-.843 3.941-2.203.437-.544.939-1.22 1.381-1.685.662-.72 1.184-.922 1.184-1.616 0-1.424-1.456-2.064-3.6-2.704-2.144-.64-4.08-.56-5.082-.122-.982.48-1.403.98-1.659 1.765z" clip-rule="evenodd"/>
  <path fill="#3F3824" fill-rule="evenodd" d="M30.684 55.28l.16-.08s.042-.639.298-.623c.256.043.379.379.358.501-.016.123-.08.326-.342.299-.341.01-.474-.096-.474-.096z" clip-rule="evenodd"/>
  <path fill="#2D2815" fill-rule="evenodd" d="M29.964 52.566s.16-.058.357.139c.16 0 .859-.08 1.077.059.22.138.283.256.283.256s-.816.176-1.264 0c-.453-.155-.453-.454-.453-.454z" clip-rule="evenodd"/>
  <path fill="#82764F" fill-rule="evenodd" d="M33.564 52.683c0-.042-.438-.341-.896-.437-.08-.016-.096.043-.16.043-.043-.016-.059-.14-.059-.14l-.261.14s-.043.058.096.16c.123.096.325.176.379.34.058.16.058.22.08.246.015.016.298 0 .437-.08.139-.085.4-.218.384-.272z" clip-rule="evenodd"/>
  <path fill="#2D2816" fill-rule="evenodd" d="M29.479 54.326s.08-.56.623-.581c.56-.043.662.5.662.5l-.325.326c0-.01-.24-.346-.96-.245z" clip-rule="evenodd"/>
  <path fill="#574F35" fill-rule="evenodd" d="M32.998 51.926s-.298.325-.96.421c-.058-.08-.176-.245 0-.5.176-.262.379-.342.582-.262a.486.486 0 01.378.341z" clip-rule="evenodd"/>
  <path fill="#82764F" fill-rule="evenodd" d="M34.22 52.32c.016-.08-.043-.095 0-.138.042-.043.261-.123.298-.08.016.016 0 .08 0 .16s0 .16-.042.219c-.059.08-.219.122-.299.096-.08-.027-.096-.14-.096-.16.043-.016.139-.054.139-.096zm1.381-.874c0-.043.139-.123.219-.123.122 0 .122.096.138.123.043.016.043-.016.08.059.038.074.096.202.06.282-.038.08-.204.139-.24.123-.065-.043-.24-.405-.257-.464z" clip-rule="evenodd"/>
  <path fill="#6E6342" fill-rule="evenodd" d="M32.817 52.507s.176.043.422.246c-.08.058-.203.122-.203.122s-.016-.192-.219-.368z" clip-rule="evenodd"/>
  <path fill="#585136" fill-rule="evenodd" d="M32.423 50.726c-.043-.043.123-.139.219-.123.096.016.138.08.24.096.106.016.122-.042.16-.08.037-.037.176-.016.202 0 .016.016.027.038.043.059a.222.222 0 01.08-.16.267.267 0 01.219-.043c.016.059.096.256.08.299-.016.043-.256.096-.3.059.044.096.22.298.24.341.028.043-.175.139-.255.123-.112-.011-.81-.416-.928-.571zm1.061-1.339a.179.179 0 00-.08-.096c-.058-.016-.24 0-.24.096s.16.64.342.923c.202.283.34.517.474.581a.19.19 0 00.246-.08c.016-.042.058-.341.042-1.045s-.042-1.381-.08-1.424c-.037-.043-.202-.043-.256.043-.07.08-.432.88-.448 1.002z" clip-rule="evenodd"/>
  <path fill="#574F35" fill-rule="evenodd" d="M32.764 53.526s-.283-.176-.56-.058c-.256.122-.24.597-.24.597.117.048.25.032.357-.043.176-.112.4-.314.443-.496z" clip-rule="evenodd"/>
  <path fill="#82764F" fill-rule="evenodd" d="M33.298 54.166c-.016-.16-.16-.16-.16-.245a.187.187 0 01.176-.14c.08 0 .16.097.261.16.096.06.24.16.256.283.016.123-.16.46-.357.46-.192.005-.134-.358-.176-.518zm1.562-.219s-.325.096-.298 0c.026-.096.096-.123.202-.123a.316.316 0 01.203-.096c.043 0 .085.011.123.043 0 0 .218-.096.282-.043.064.06.016.06.059.123a.514.514 0 01.096.245c0 .065-.245.203-.437.177-.23-.049-.192-.283-.23-.326zm1.883-.363s.096.06.016.123c-.059.059-.341.16-.581.176-.246 0-.459.043-.459-.043 0-.085.203-.245.325-.282a.248.248 0 01.203-.096c.096 0 .475-.043.581-.059.096-.016.176.043.123.123-.032.058-.208.058-.208.058zm.56-2.5s-.123.255-.256.255c-.139-.016-.139-.058-.139-.096 0-.059.139-.203.123-.24-.043 0-.139 0-.123-.096 0-.08.139-.176.256-.16a.556.556 0 01.326-.123c.138 0 .256.043.256.123s-.16.256-.219.299c-.064.064-.144.107-.224.037zm-1.845 4.783s-.16.016-.16.096c0 .043.042.043.096.016a.304.304 0 00.096-.016c.016.016.016.096.138.096a.844.844 0 00.283-.096c.096-.043.176-.08.176-.16-.043-.139-.123-.203-.245-.203a.29.29 0 00-.176.043s-.043-.08-.176 0c-.139.08-.123.08-.08.123.074.064.048.107.048.101zm-.918.843c0-.043.203-.123.256-.096.059.016.219.325.219.357 0 .043-.203.139-.283.139-.08 0-.218-.139-.218-.16 0-.016.096-.043.096-.059.032-.042-.07-.139-.07-.181zm-.64-1.184c.043-.016.043-.059.096-.096.038-.022.08-.032.123-.016a.188.188 0 01.139-.096c.096-.016.176 0 .16.043 0 .122.08.202.08.298 0 .096-.059.219-.256.299-.203.059-.475.059-.518.043-.042-.017-.08-.176-.042-.262.037-.085.154-.17.218-.213z" clip-rule="evenodd"/>
  <path fill="#6E6342" fill-rule="evenodd" d="M34.161 55.585s-.138.08-.138.123a.458.458 0 00-.016.122c0 .022.176-.016.203-.042.005-.022-.049-.166-.049-.203z" clip-rule="evenodd"/>
  <path fill="#585136" fill-rule="evenodd" d="M32.956 55.201c.08.016.219 0 .325.043.08.042.14.122.06.218-.08.096-.16.246-.342.219-.203-.016-.395-.123-.395-.203a.39.39 0 01.096-.282c.08-.064.117-.027.256.005z" clip-rule="evenodd"/>
  <path fill="#574F35" fill-rule="evenodd" d="M32.86 55.28s-.255.203-.325.3c-.08.095-.474.597-.597.703.043-.069.085-.138.139-.202a.845.845 0 00-.342.437c-.096.299.544.464.96.581.416.118.582.16.582.16a4.45 4.45 0 01-.395-.736c-.16-.378-.24-.42-.139-.597.08-.176.203-.299.203-.437-.043-.123-.085-.208-.085-.208z" clip-rule="evenodd"/>
  <path fill="#252211" fill-rule="evenodd" d="M23.639 55.92c.058.011.117.011.176 0 .122-.015 1.381-.48 2.704-.394.986.059 1.968.219 2.922.48 1.659.437 3.723 1.301 5.056 1.797.358.14.704.38.96.475 1.019.395 1.062.395 1.659.501.704.096 1.424-.138 2.176-.298.923-.203 2.501-.299 3.883-.502.448-.064.89-.16 1.317-.298 0 0-1.099 1.098-3.739 1.498-1.066.16-2.149.176-3.221.043-.843-.08-1.397-.203-1.819-.325-.48-.139-1.456-.502-2.661-.8-.843-.219-1.781-.379-2.853-.582-2.656-.49-5.536-1.045-6.56-1.594z" clip-rule="evenodd"/>
  <path fill="#CFB66C" fill-rule="evenodd" d="M20.658 50.923a42.476 42.476 0 01-1.984 1.563l-2 1.536c-.678.501-1.344 1.019-2.022 1.52-.677.501-1.36.976-2.08 1.44a31.058 31.058 0 012-1.536c.683-.49 1.387-.976 2.038-1.477l2-1.536c.688-.507 1.354-1.024 2.048-1.51zm-3.536 5.664s.72-.597 1.616-1.44c1.114-1.045 2.485-2.378 2.922-2.618l-4.538 4.058z" clip-rule="evenodd"/>
  <path fill="#CFB66C" fill-rule="evenodd" d="M17.121 56.587c.357-.357.736-.704 1.115-1.045l.581-.501c.176-.16.379-.342.56-.518.357-.357.704-.736 1.061-1.098.176-.182.363-.358.56-.518a1.51 1.51 0 01.326-.218c.096-.059.202-.16.341-.176-.08.122-.176.176-.261.282-.096.08-.176.176-.256.256-.176.176-.379.342-.56.502-.379.325-.779.64-1.158.976-.378.336-.736.704-1.114 1.045-.416.347-.795.688-1.195 1.013zm4.843-3.237s-2.64 2.581-3.179 3.003l3.179-3.003z" clip-rule="evenodd"/>
  <path fill="#CFB66C" fill-rule="evenodd" d="M21.964 53.35c-.234.272-.49.533-.762.779l-.8.762c-.256.256-.502.518-.78.78-.282.244-.543.48-.842.703l.779-.763c.261-.256.544-.474.816-.736l.779-.762c.266-.272.522-.528.81-.763zm.118 1.397a17.113 17.113 0 01-.86 1.984c-.676 1.36-1.7 3.056-2.143 3.926l3.003-5.91z" clip-rule="evenodd"/>
  <path fill="#CFB66C" fill-rule="evenodd" d="M22.08 54.748c0 .298-.08.56-.175.816a7.974 7.974 0 01-.326.762c-.122.246-.26.502-.394.736-.133.235-.299.475-.421.72l-.816 1.44c-.283.48-.56.966-.86 1.424.203-.517.48-1.002.737-1.482.283-.48.544-.96.8-1.456.128-.246.24-.502.341-.763.123-.261.24-.501.341-.736.123-.256.22-.501.342-.736.133-.245.245-.49.432-.725z" clip-rule="evenodd"/>
  <path fill="#DEC270" fill-rule="evenodd" d="M24.961 61.382s-.8 1.062-.72 2.406c.219-.704.496-1.782.72-2.406zm.763 1.062s-.283 2.88-.518 4.298c.331-1.637.395-1.498.518-4.298zm5.301 4.469s-1.195 3.52-1.221 4.496c.256-1.003.757-3.061 1.221-4.496z" clip-rule="evenodd"/>
  <path fill="#CBAF59" fill-rule="evenodd" d="M33.82 61.164s1.942 3.205 3.398 5.936c-.39-1.371-1.296-3.894-3.398-5.936z" clip-rule="evenodd"/>
  <path fill="#E3C677" fill-rule="evenodd" d="M39.041 65.883a58.361 58.361 0 012.88 5.819c-.16-1.376-.597-3.733-2.88-5.819z" clip-rule="evenodd"/>
  <path fill="#ECD592" fill-rule="evenodd" d="M54.38 70.603c.326-.202.966-1.3 1.52-1.578.56-.283.976-.342 1.483-.896.501-.582.64-.939 1.739-1.398 1.536-.66.48-1.52.48-1.52.17-.165.352-.32.544-.458.394-.299.858-.662.816-1.302-.059-1.077-.256-2.634-1.142-3.54.859-.177 2.502-.3 3.52-.56 1.179-.3 1.723-.72 1.723-.72s-.677-1.158.421-2.32c1.099-1.164 2-1.862 2.662-3.164-.763-.096-1.92-.5-4.88.624.16.075.314.16.464.256 0 0-1.819.502-2.486 1.062-1.157.976-1.301 1.781-2.554 2.378-1.254.598-2.518.438-3.558.923-1.04.485-1.2.896-1.578 1.077.08.096-.016.256.138.395-.096.139-.661 1.061-1.237 1.061.059.22.544.38.544.38s-.357.26-1.264.324c.459.48.896 1.003 2.101 1.766-.096.202-.501.501-.341.88.176.378.64.896 2.485 1.317-.938.043-2.037.256-3.52.059-1.482-.176-1.722-.283-2.64-.059.096.096.358.096.582.357-.246.016-1.766-.176-2.283.502-.544.704-.779 1.861-.736 2.634-.283.14-.56.38-.421.88.138.502.858.662 1.317.976.459.342.501.46.939.38.458-.097 1.141-.56 1.536-.56.394 0 .677.298.677.298s1.077-.518 1.184-.422c.096.096.016.72.123.816.112.075 1.322-.645 1.642-.848z" clip-rule="evenodd"/>
  <path fill="#fff" fill-opacity=".8" fill-rule="evenodd" d="M77.9 38.23c-5.056-13.056-17.557-15.477-17.557-15.477H24.679l.138 13.301h7.104v29.702H24.68V79.03h34.677c8.357 0 15.056-8.4 15.056-8.4 10.73-15.226 3.488-32.4 3.488-32.4zM59.543 61.68s-2.72 3.926-5.68 3.926h-5.92l-.139-29.52h7.595s3.52.736 5.978 7.702c0 0 3.264 9.973-1.834 17.893z" clip-rule="evenodd"/>
</svg>
