<svg xmlns="http://www.w3.org/2000/svg" width="100" height="100" fill="none" viewBox="0 0 100 100">
  <path fill="#fff" d="M50 100c27.614 0 50-22.386 50-50S77.614 0 50 0 0 22.386 0 50s22.386 50 50 50z"/>
  <g clip-path="url(#clip0_1_372)">
    <path fill="#E6007A" d="M49.997 29.311c7.202 0 13.04-3.427 13.04-7.655 0-4.229-5.838-7.656-13.04-7.656-7.202 0-13.04 3.427-13.04 7.656 0 4.228 5.838 7.655 13.04 7.655zM49.997 86.995c7.202 0 13.04-3.428 13.04-7.656s-5.838-7.655-13.04-7.655c-7.202 0-13.04 3.427-13.04 7.655s5.838 7.656 13.04 7.656zM31.826 39.908c3.6-6.295 3.577-13.114-.053-15.23-3.63-2.115-9.49 1.274-13.092 7.57-3.6 6.295-3.577 13.114.052 15.23 3.63 2.115 9.492-1.274 13.093-7.57zM81.309 68.747c3.6-6.296 3.58-13.113-.048-15.227-3.627-2.114-9.487 1.275-13.088 7.571-3.6 6.296-3.58 13.113.048 15.227 3.627 2.114 9.487-1.276 13.088-7.571zM31.775 76.316c3.63-2.115 3.654-8.934.053-15.23-3.601-6.295-9.463-9.684-13.093-7.568-3.63 2.115-3.653 8.934-.052 15.23 3.601 6.295 9.463 9.684 13.092 7.568zM81.264 47.479c3.627-2.114 3.649-8.931.048-15.227-3.601-6.296-9.46-9.686-13.088-7.572-3.627 2.114-3.649 8.932-.048 15.227 3.601 6.296 9.46 9.686 13.088 7.572z"/>
  </g>
  <defs>
    <clipPath id="clip0_1_372">
      <path fill="#fff" d="M0 0h68v73H0z" transform="translate(16 14)"/>
    </clipPath>
  </defs>
</svg>
