<svg width="800" height="800" viewBox="0 0 800 800" fill="none" xmlns="http://www.w3.org/2000/svg">
<path d="M400 800C620.914 800 800 620.914 800 400C800 179.086 620.914 0 400 0C179.086 0 0 179.086 0 400C0 620.914 179.086 800 400 800Z" fill="#2775CA"/>
<path d="M497 451.792C497 400.237 466.127 382.561 404.38 375.197C360.275 369.304 351.454 357.521 351.454 336.896C351.454 316.271 366.157 303.018 395.559 303.018C422.022 303.018 436.725 311.856 444.074 333.951C445.546 338.37 449.956 341.315 454.367 341.315H477.887C483.769 341.315 488.179 336.896 488.179 331.006V329.532C482.297 297.124 455.834 272.084 422.022 269.139V233.787C422.022 227.893 417.611 223.474 410.262 222H388.209C382.328 222 377.917 226.419 376.446 233.787V267.665C332.341 273.558 304.41 303.018 304.41 339.844C304.41 388.454 333.812 407.601 395.559 414.969C436.725 422.332 449.956 431.171 449.956 454.74C449.956 478.31 429.372 494.512 401.441 494.512C363.214 494.512 349.983 478.306 345.573 456.211C344.105 450.321 339.694 447.373 335.284 447.373H310.289C304.41 447.373 300 451.792 300 457.685V459.159C305.878 495.983 329.402 522.497 377.917 529.864V565.217C377.917 571.107 382.328 575.526 389.677 577H411.73C417.611 577 422.022 572.581 423.493 565.217V529.864C467.598 522.497 497 491.563 497 451.792V451.792Z" fill="white"/>
<path d="M324.478 606.454C209.74 565.265 150.898 437.279 193.56 324.001C215.625 262.215 264.168 215.141 324.478 193.074C330.364 190.133 333.305 185.72 333.305 178.362V157.768C333.305 151.882 330.364 147.469 324.478 146C323.006 146 320.065 146 318.593 147.469C178.849 191.602 102.355 340.186 146.485 479.94C172.963 562.32 236.218 625.579 318.593 652.059C324.478 655 330.364 652.059 331.832 646.173C333.305 644.705 333.305 643.232 333.305 640.291V619.693C333.305 615.28 328.892 609.398 324.478 606.454ZM480.407 147.469C474.522 144.528 468.636 147.469 467.168 153.354C465.695 154.827 465.695 156.295 465.695 159.24V179.834C465.695 185.72 470.108 191.602 474.521 194.546C589.26 235.735 648.102 363.721 605.44 476.999C583.375 538.785 534.832 585.859 474.521 607.926C468.636 610.867 465.695 615.28 465.695 622.638V643.232C465.695 649.118 468.636 653.531 474.521 655C475.994 655 478.935 655 480.407 653.531C620.151 609.398 696.645 460.814 652.515 321.06C626.037 237.207 561.31 173.949 480.407 147.469V147.469Z" fill="white"/>
</svg>
